<?xml version="1.0" encoding="UTF-8" standalone="no"?>
<svg
   xmlns:dc="http://purl.org/dc/elements/1.1/"
   xmlns:cc="http://creativecommons.org/ns#"
   xmlns:rdf="http://www.w3.org/1999/02/22-rdf-syntax-ns#"
   xmlns:svg="http://www.w3.org/2000/svg"
   xmlns="http://www.w3.org/2000/svg"
   xmlns:xlink="http://www.w3.org/1999/xlink"
   xmlns:sodipodi="http://sodipodi.sourceforge.net/DTD/sodipodi-0.dtd"
   xmlns:inkscape="http://www.inkscape.org/namespaces/inkscape"
   width="210mm"
   height="297mm"
   viewBox="0 0 210 297"
   version="1.1"
   id="svg8"
   inkscape:version="1.0 (6e3e5246a0, 2020-05-07)"
   sodipodi:docname="overview.svg">
  <defs
     id="defs2">
    <rect
       x="-115.19317"
       y="-13.363476"
       width="59.066565"
       height="14.432554"
       id="rect1001" />
    <rect
       x="-108.10119"
       y="199.19345"
       width="85.422619"
       height="12.85119"
       id="rect188" />
    <rect
       x="-34.017857"
       y="-77.107143"
       width="236.6131"
       height="419.55357"
       id="rect131" />
    <rect
       x="-1.7986167"
       y="84.642836"
       width="125.47328"
       height="112.58899"
       id="rect196" />
    <rect
       x="137.76125"
       y="40.639754"
       width="86.494529"
       height="28.155664"
       id="rect111" />
    <linearGradient
       id="linearGradient184"
       inkscape:collect="always">
      <stop
         id="stop180"
         offset="0"
         style="stop-color:#000000;stop-opacity:1;" />
      <stop
         id="stop182"
         offset="1"
         style="stop-color:#000000;stop-opacity:0;" />
    </linearGradient>
    <rect
       id="rect81"
       height="12.562"
       width="50.992932"
       y="76.606931"
       x="6.3573547" />
    <rect
       id="rect75"
       height="20.347134"
       width="70.503911"
       y="68.818691"
       x="70.481147" />
    <rect
       id="rect69"
       height="12.525442"
       width="151.95938"
       y="14.860478"
       x="52.149047" />
    <rect
       x="52.149048"
       y="14.860478"
       width="67.081633"
       height="21.235112"
       id="rect69-3" />
    <rect
       x="52.149048"
       y="14.860478"
       width="51.333794"
       height="12.525442"
       id="rect94" />
    <rect
       x="70.481148"
       y="68.818687"
       width="70.158754"
       height="25.387284"
       id="rect75-7" />
    <rect
       x="70.481148"
       y="68.818687"
       width="39.542683"
       height="17.071808"
       id="rect133" />
    <rect
       x="70.481148"
       y="68.818687"
       width="51.940597"
       height="16.897815"
       id="rect75-3" />
    <rect
       x="70.481148"
       y="68.818687"
       width="39.542683"
       height="17.071808"
       id="rect133-5" />
    <linearGradient
       gradientUnits="userSpaceOnUse"
       y2="77.04353"
       x2="95.533218"
       y1="77.04353"
       x1="70.869765"
       id="linearGradient186"
       xlink:href="#linearGradient184"
       inkscape:collect="always" />
    <rect
       id="rect75-7-2"
       height="21.949948"
       width="82.35693"
       y="68.818687"
       x="70.481148" />
    <rect
       id="rect197"
       height="17.071808"
       width="39.542683"
       y="68.818687"
       x="70.481148" />
    <rect
       x="70.481148"
       y="68.818687"
       width="39.542683"
       height="17.071808"
       id="rect75-7-2-1" />
    <rect
       x="70.481148"
       y="68.818687"
       width="39.542683"
       height="17.071808"
       id="rect235" />
    <rect
       x="52.149048"
       y="14.860478"
       width="51.333794"
       height="12.525442"
       id="rect69-36" />
    <rect
       x="52.149048"
       y="14.860478"
       width="51.333794"
       height="12.525442"
       id="rect126" />
    <rect
       id="rect111-5"
       height="26.281792"
       width="102.74988"
       y="40.639755"
       x="137.76125" />
    <rect
       id="rect164"
       height="28.155664"
       width="86.49453"
       y="40.639755"
       x="137.76125" />
    <rect
       x="70.481148"
       y="68.818687"
       width="81.600982"
       height="24.595781"
       id="rect75-7-2-9" />
    <rect
       x="70.481148"
       y="68.818687"
       width="66.481934"
       height="24.595781"
       id="rect231" />
    <rect
       x="137.76125"
       y="40.639755"
       width="102.74988"
       height="26.281792"
       id="rect111-5-6" />
    <rect
       x="137.76125"
       y="40.639755"
       width="102.74988"
       height="26.281792"
       id="rect292" />
    <rect
       x="52.149048"
       y="14.860478"
       width="51.333794"
       height="12.525442"
       id="rect69-367" />
    <rect
       x="52.149048"
       y="14.860478"
       width="51.333794"
       height="12.525442"
       id="rect138" />
    <rect
       x="52.149048"
       y="14.860478"
       width="51.333794"
       height="12.525442"
       id="rect69-35" />
    <rect
       x="52.149048"
       y="14.860478"
       width="51.333794"
       height="12.525442"
       id="rect168" />
    <rect
       id="rect69-35-2"
       height="12.525442"
       width="51.333794"
       y="14.860478"
       x="52.149048" />
    <rect
       id="rect198"
       height="12.525442"
       width="51.333794"
       y="14.860478"
       x="52.149048" />
    <rect
       id="rect69-35-1"
       height="12.525442"
       width="51.333794"
       y="14.860478"
       x="52.149048" />
    <rect
       id="rect198-2"
       height="12.525442"
       width="51.333794"
       y="14.860478"
       x="52.149048" />
    <rect
       x="52.149048"
       y="14.860478"
       width="51.333794"
       height="12.525442"
       id="rect69-6" />
    <rect
       x="52.149048"
       y="14.860478"
       width="51.333794"
       height="12.525442"
       id="rect203" />
    <rect
       x="52.149048"
       y="14.860478"
       width="51.333794"
       height="12.525442"
       id="rect69-62" />
    <rect
       x="52.149048"
       y="14.860478"
       width="51.333794"
       height="12.525442"
       id="rect263" />
    <rect
       id="rect69-62-7"
       height="12.525442"
       width="51.333794"
       y="14.860478"
       x="52.149048" />
    <rect
       id="rect297"
       height="12.525442"
       width="51.333794"
       y="14.860478"
       x="52.149048" />
    <rect
       x="52.149048"
       y="14.860478"
       width="51.333794"
       height="12.525442"
       id="rect69-3675" />
    <rect
       x="52.149048"
       y="14.860478"
       width="51.333794"
       height="12.525442"
       id="rect140" />
    <rect
       x="52.149048"
       y="14.860478"
       width="200.08466"
       height="32.921934"
       id="rect69-36753" />
    <rect
       x="52.149048"
       y="14.860478"
       width="151.95938"
       height="12.525442"
       id="rect151" />
    <rect
       x="70.481148"
       y="68.818687"
       width="100.48204"
       height="23.05246"
       id="rect75-7-2-0" />
    <rect
       x="70.481148"
       y="68.818687"
       width="82.356934"
       height="21.949947"
       id="rect241" />
    <rect
       id="rect111-5-6-9"
       height="26.281792"
       width="102.74988"
       y="40.639755"
       x="137.76125" />
    <rect
       id="rect244"
       height="26.281792"
       width="102.74988"
       y="40.639755"
       x="137.76125" />
    <rect
       id="rect1001-3"
       height="14.432554"
       width="59.066566"
       y="-13.363476"
       x="-115.19317" />
    <rect
       id="rect1014"
       height="14.432554"
       width="59.066566"
       y="-13.363476"
       x="-115.19317" />
    <rect
       x="-115.19317"
       y="-13.363476"
       width="59.066566"
       height="14.432554"
       id="rect1001-3-5" />
    <rect
       x="-115.19317"
       y="-13.363476"
       width="59.066566"
       height="14.432554"
       id="rect1046" />
    <rect
       x="-115.19317"
       y="-13.363476"
       width="77.240894"
       height="14.967093"
       id="rect1001-3-6" />
    <rect
       x="-115.19317"
       y="-13.363476"
       width="59.066566"
       height="14.432554"
       id="rect1046-2" />
    <rect
       x="-115.19317"
       y="-13.363476"
       width="108.95942"
       height="20.858149"
       id="rect1001-3-2" />
    <rect
       x="-115.19317"
       y="-13.363476"
       width="59.066566"
       height="14.432554"
       id="rect1046-7" />
  </defs>
  <sodipodi:namedview
     inkscape:snap-nodes="false"
     showborder="true"
     inkscape:showpageshadow="false"
     inkscape:object-paths="false"
     inkscape:snap-grids="true"
     id="base"
     pagecolor="#ffffff"
     bordercolor="#666666"
     borderopacity="1.0"
     inkscape:pageopacity="0.0"
     inkscape:pageshadow="2"
     inkscape:zoom="0.98994949"
     inkscape:cx="583.51977"
     inkscape:cy="418.24861"
     inkscape:document-units="mm"
     inkscape:current-layer="layer1"
     inkscape:document-rotation="0"
     showgrid="false"
     inkscape:window-width="945"
     inkscape:window-height="978"
     inkscape:window-x="960"
     inkscape:window-y="25"
     inkscape:window-maximized="0" />
  <metadata
     id="metadata5">
    <rdf:RDF>
      <cc:Work
         rdf:about="">
        <dc:format>image/svg+xml</dc:format>
        <dc:type
           rdf:resource="http://purl.org/dc/dcmitype/StillImage" />
        <dc:title />
      </cc:Work>
    </rdf:RDF>
  </metadata>
  <g
     sodipodi:insensitive="true"
     inkscape:groupmode="layer"
     id="layer2"
     inkscape:label="Layer 2">
    <rect
       style="fill:#f9f9f9;fill-opacity:0.501961;stroke:#000000;stroke-width:0.264583"
       id="rect169"
       width="202.97321"
       height="293.6875"
       x="3.4017856"
       y="2.1166666"
       rx="1.2423298"
       ry="1.2423298" />
    <rect
       ry="1.2423298"
       rx="1.2423298"
       y="2.154464"
       x="3.4395936"
       height="293.6875"
       width="20.410706"
       id="rect169-3"
       style="fill:#f9f9f9;fill-opacity:0.501961;stroke:#000000;stroke-width:0.264583" />
    <text
       xml:space="preserve"
       id="text186"
       style="font-size:10.5833px;line-height:1.25;font-family:sans-serif;letter-spacing:0px;white-space:pre;shape-inside:url(#rect188);" />
    <text
       xml:space="preserve"
       style="font-size:5.64444px;line-height:1.25;font-family:sans-serif;letter-spacing:0px;stroke-width:0.264583"
       x="-165.23289"
       y="14.769824"
       id="text195"
       transform="rotate(-90.741854)"><tspan
         sodipodi:role="line"
         id="tspan192"
         x="-165.23289"
         y="14.769824"
         style="font-size:5.64444px;stroke-width:0.264583">MainSyncService</tspan></text>
  </g>
  <g
     inkscape:label="Layer 1"
     inkscape:groupmode="layer"
     id="layer1"
     style="display:inline">
    <path
       d="m 38.757226,25.120553 c -0.09464,0.94929 0.123116,1.901864 0.205153,2.849417 0.0493,0.569416 0.0819,1.139216 0.122845,1.708825 0.258104,3.434075 0.141065,6.871056 0.170135,10.306694 0.04278,0.97052 0.05554,1.956518 0.538272,2.898416 0.236775,0.389518 0.648087,0.739104 1.041577,1.087256 0.136143,0.102245 0.322299,0.268989 0.552845,0.320036 0.621166,0.137533 1.841974,0.19272 2.418204,0.217187 1.758689,0.07467 2.705657,0.06601 4.524262,0.08219 0.96643,-0.01987 1.933771,-0.02952 2.899288,-0.0596 2.383328,-0.07426 4.272001,-0.188985 6.667553,-0.316206 3.108104,-0.165062 6.215859,-0.324397 9.327642,-0.468004 3.290574,-0.162149 6.595067,-0.16073 9.881554,0.01226 1.068072,0.05507 2.135481,0.113711 3.20322,0.170616 0.394912,0.02104 0.966624,0.06624 1.378332,0.03617 0.163039,-0.01187 0.315601,-0.05018 0.4734,-0.07525 0.565953,-0.203539 1.189207,-0.367229 1.697855,-0.610613 0.457974,-0.219134 0.173801,-1.320396 0.125451,-1.55124 -0.08084,-0.385833 -0.433795,-1.669578 -0.525618,-2.009777 -0.616177,-2.512771 -1.064157,-5.036192 -1.351141,-7.565762 -0.201209,-1.788118 -0.227462,-3.579805 -0.200585,-5.370535 -0.06109,-0.615553 0.198407,-1.246766 -0.08992,-1.850191 -0.283262,-0.35338 -0.716988,-0.676033 -1.327251,-0.885615 -0.186203,-0.06395 -0.388493,-0.113213 -0.582744,-0.169815 -2.300395,-0.488075 -4.845864,-0.3778 -7.261342,-0.298168 -3.91148,0.195526 -7.835715,0.280116 -11.757017,0.392397 -3.690825,0.107914 -7.375451,0.264159 -11.062009,0.405854 -1.184927,0.02926 -2.361506,0.112652 -3.543692,0.160471 -1.141598,0.03795 -2.286176,0.03726 -3.429489,0.0359 -0.157408,-5.03e-4 -0.31484,-0.001 -0.472261,-0.0015 0,0 -1.289081,0.503745 -1.289081,0.503745 v 0 c 0.160591,-6.29e-4 0.321153,-0.0013 0.481727,-0.0019 1.139778,-0.0042 2.28017,-0.0014 3.419306,-0.02417 1.21461,-0.04935 2.418829,-0.151836 3.634502,-0.195976 3.737849,-0.18059 7.472936,-0.381714 11.223601,-0.472788 0.804742,-0.01934 1.609483,-0.03871 2.414227,-0.05806 0.717052,-0.01021 1.434428,-0.01541 2.151159,-0.03091 2.372116,-0.05112 4.735413,-0.18081 7.103141,-0.267613 2.35779,-0.07059 4.831674,-0.159909 7.075628,0.313591 0.185681,0.05416 0.379688,0.10079 0.557053,0.162491 0.572181,0.199072 0.980098,0.513649 1.246657,0.845259 0.28174,0.585442 0.08279,1.2048 0.178661,1.801948 0.07381,1.780379 0.15083,3.561292 0.331497,5.339612 0.358316,2.528218 0.864103,5.048617 1.354386,7.570231 0.210344,0.90545 0.516754,1.838163 0.477199,2.754929 -0.0077,0.174287 -0.02981,0.350371 -0.10508,0.519939 -0.04416,0.09953 -0.438164,0.268499 -0.248455,0.276376 0.373461,0.01556 0.685365,-0.162667 1.028041,-0.244001 -0.15337,0.03403 -0.29773,0.08373 -0.460081,0.102079 -0.416579,0.04711 -1.007025,0.006 -1.408729,-0.01124 -1.078061,-0.04604 -2.15492,-0.09986 -3.230614,-0.159701 -3.362745,-0.169054 -6.74163,-0.12395 -10.10183,0.05702 -3.14125,0.163411 -6.279435,0.344321 -9.421135,0.505015 -1.774399,0.09075 -4.752102,0.237183 -6.58054,0.286515 -0.946717,0.02556 -1.89509,0.02814 -2.842634,0.0422 -1.887648,-0.03278 -2.587054,-0.0244 -4.386627,-0.126006 -0.449275,-0.02536 -1.703202,-0.104467 -2.236109,-0.224833 -0.219691,-0.04963 -0.390199,-0.202098 -0.520707,-0.2988 -0.38693,-0.341148 -0.780227,-0.686581 -1.034991,-1.063383 -0.528275,-0.912241 -0.598679,-1.876536 -0.718735,-2.823502 -0.273526,-3.416668 -0.36378,-6.837099 -0.350427,-10.256792 -0.02522,-4.735743 -0.0021,0.758911 -0.0028,-3.04547 -1.67e-4,-0.511524 -0.0286,-0.739676 0.02389,-1.20889 0.0074,-0.06661 0.06208,-0.322664 0.08261,-0.420661 0,0 -1.468973,0.402517 -1.468973,0.402517 z"
       id="path9"
       style="fill:#000000;fill-opacity:0.501961;stroke:#000000;stroke-width:0.206973;opacity:0.35497835" />
    <path
       d="m 48.421194,3.3411231 c 0.04801,1.459664 0.05663,2.920651 0.06916,4.38113 0.02315,2.4527159 0.0088,4.9053169 -0.02038,7.3578359 -0.01659,1.112996 -0.02534,2.226071 -0.02771,3.339212 0.01237,0.896322 -0.02304,1.793761 0.02015,2.689054 -0.005,0.121525 -0.0099,0.24306 -0.01489,0.36459 0,0 1.108417,-0.636183 1.108417,-0.636183 v 0 c 6.66e-4,-0.123069 0.0016,-0.246129 0.002,-0.369194 -0.03612,-0.893336 -0.01308,-1.78808 -0.01851,-2.682122 -0.0022,-1.102472 -0.01101,-2.204882 -0.02771,-3.307206 -0.02949,-2.444671 -0.04336,-4.8894239 -0.02038,-7.3342979 0.01266,-1.487117 0.02173,-2.974698 0.06916,-4.461036 0,0 -1.139397,0.658217 -1.139397,0.658217 z"
       id="path13"
       style="fill:#00ff00;fill-opacity:0.501961;stroke:#000000;stroke-width:0.264583;opacity:0.54545455" />
    <path
       d="m 43.734134,19.934288 c 0.644448,0.731853 1.407475,1.309736 2.15365,1.897297 0.549793,0.371317 1.040597,0.990268 1.691849,1.142941 0.399404,0.09363 0.507276,0.0066 0.901791,-0.104671 1.081251,-0.498535 2.083127,-1.228822 2.872369,-2.206721 0.302868,-0.375262 0.492132,-0.691877 0.755738,-1.100568 0.409027,-0.731779 0.2188,-0.369726 0.573436,-1.084294 0,0 -1.106146,0.560105 -1.106146,0.560105 v 0 c -0.346938,0.700604 -0.158995,0.345544 -0.567337,1.062785 -0.366853,0.558201 -0.733671,1.080267 -1.19249,1.547113 -0.147861,0.150454 -0.594604,0.271362 -0.456985,0.433824 0.144032,0.17003 0.377593,-0.198541 0.559427,-0.31289 0.152859,-0.09614 -0.31492,0.172098 -0.472384,0.258149 -0.35484,0.128447 -0.479026,0.22754 -0.850686,0.165962 -0.654356,-0.108412 -1.153344,-0.730942 -1.697367,-1.092344 -0.726944,-0.57861 -1.47783,-1.149117 -2.071128,-1.907486 0,0 -1.093737,0.7408 -1.093737,0.740802 z"
       id="path15"
       style="fill:#00ff00;fill-opacity:0.501961;stroke:#000000;stroke-width:0.264583;opacity:0.54545455" />
    <path
       d="m 37.654859,88.124843 c 5.308369,-0.117822 10.619244,-0.147598 15.928937,-0.203446 7.377034,-0.08529 14.754393,0.03484 22.13145,-0.0089 2.660874,-0.01573 4.181902,-0.04603 6.752924,-0.08745 1.737378,-0.04083 3.473991,-0.103331 5.208973,-0.189321 0.0073,-2.34e-4 1.29252,-0.07528 1.448234,-0.06523 0.112822,0.008 0.217353,0.05231 0.326017,0.07849 0.03477,0.05734 0.09568,0.108054 0.10419,0.171816 0.04547,0.344918 -0.255394,0.740886 -0.404251,1.042216 -0.256342,0.51892 -0.175628,0.34668 -0.364143,0.92892 -0.299502,1.38593 -0.248926,2.80338 -0.251066,4.20577 0.0085,1.79437 0.02322,3.58869 0.02091,5.38307 -0.0024,1.334942 -0.0097,2.669882 -0.02821,4.004732 -0.0603,0.27649 0.05349,0.72629 -0.221802,0.95619 -0.07939,0.0663 -0.374052,0.19909 -0.299672,0.12893 0.71495,-0.67431 1.237895,-0.52139 -0.236866,-0.48619 -4.853731,-0.10027 -9.708103,-0.137 -14.563117,-0.16075 -5.681685,0.009 -11.364253,-0.15657 -17.045098,-0.0506 -2.482407,0.0701 -4.949063,0.32482 -7.410339,0.58641 -0.860809,0.0915 -2.864334,0.33184 -3.804178,0.38939 -0.455822,0.028 -0.913793,0.0202 -1.370689,0.0303 -0.359532,-0.0369 -0.725598,-0.0431 -1.078594,-0.11092 -1.190741,-0.22841 -2.08977,-0.97934 -2.499019,-1.92583 -0.153386,-0.35474 -0.229793,-0.72935 -0.34469,-1.09403 -0.500177,-2.292492 -0.553189,-4.629132 -0.565807,-6.952432 0.01675,-0.90141 0.0088,-1.81073 0.140055,-2.70759 0.07447,-0.50862 0.146923,-0.72348 0.280561,-1.22966 0.188738,-0.60011 0.424635,-1.18864 0.657387,-1.77757 0,0 -1.294227,0.50738 -1.294227,0.50738 v 0 c -0.21788,0.59156 -0.440132,1.18219 -0.633167,1.77983 -0.144887,0.54541 -0.204844,0.70026 -0.278755,1.24666 -0.120955,0.89418 -0.102561,1.80068 -0.08832,2.69831 0.06955,2.32424 0.19167,4.65482 0.623842,6.954942 0.100628,0.38115 0.155866,0.7726 0.301864,1.14348 0.389678,0.98999 1.362516,1.78513 2.59152,2.01028 0.369014,0.0676 0.751235,0.0684 1.126851,0.10264 0.474005,-0.0169 0.949462,-0.0154 1.422017,-0.0506 0.903053,-0.0671 3.075915,-0.35 3.890721,-0.44221 2.453709,-0.2777 4.916621,-0.51896 7.393744,-0.58832 5.723253,-0.12278 11.451072,-0.0496 17.175498,-0.0321 4.751248,0.0596 9.503607,0.13265 14.248852,0.35192 1.468914,0.0326 0.858629,0.12589 2.736669,-0.64236 0.106865,-0.0438 0.201535,-0.11394 0.269156,-0.19549 0.226447,-0.27317 0.115861,-0.6835 0.161124,-0.98469 -0.0203,-1.32543 -0.02954,-2.65095 -0.03915,-3.976462 -0.01252,-1.79545 -0.01568,-3.59095 -0.01094,-5.38643 0.01094,-1.40025 -0.01714,-2.81857 0.317835,-4.19719 0.221292,-0.60333 0.12036,-0.3816 0.388216,-0.92228 0.166352,-0.33577 0.47671,-0.770613 0.375085,-1.154624 -0.0248,-0.09363 -0.117685,-0.164926 -0.176443,-0.247386 -0.128457,-0.03135 -0.251783,-0.08661 -0.385358,-0.09399 -0.156322,-0.0087 -1.519295,0.112486 -1.530857,0.113392 -1.806444,0.141451 -3.61645,0.250616 -5.428512,0.328545 -2.765704,0.100981 -4.072885,0.158802 -6.960799,0.215735 -7.407174,0.146026 -14.81829,0.08975 -22.226547,0.06731 -5.085223,-0.05543 -10.17182,-0.08315 -15.255568,-0.20343 0,0 -1.226375,0.741012 -1.226375,0.741012 z"
       id="path39"
       style="fill:#000000;fill-opacity:0.501961;stroke:#000000;stroke-width:0.300404;opacity:0.35497835" />
    <path
       d="m 41.431332,146.87952 c 0.02438,0.77602 0.02741,1.55272 0.03157,2.32916 0.0046,1.33685 0.0083,2.6737 0.0057,4.01056 -0.0028,1.22745 0.12428,2.44577 0.288847,3.65667 0.123183,0.87032 0.256301,1.73762 0.327266,2.61586 0.02855,0.38037 0.03716,0.76194 0.04193,1.14344 0,0 0.784175,-0.45581 0.784175,-0.45581 v 0 c -0.01211,-0.38098 -0.02619,-0.76212 -0.05906,-1.14168 -0.08323,-0.87509 -0.226533,-1.73863 -0.353843,-2.60644 -0.174895,-1.2021 -0.293179,-2.41441 -0.298335,-3.63432 -0.0024,-1.3391 0.0012,-2.67818 0.0057,-4.01728 0.0043,-0.7886 0.0075,-1.57744 0.03157,-2.36565 0,0 -0.805761,0.46549 -0.805761,0.46549 z"
       id="path45"
       style="fill:#000000;fill-opacity:0.501961;stroke:#000000;stroke-width:0.264583;opacity:0.35497835" />
    <path
       d="m 41.431956,146.87952 c 3.26772,0.46998 6.542404,0.89558 9.845013,1.14731 1.290167,0.0983 2.583325,0.16555 3.874992,0.24831 7.078138,0.40738 14.169789,0.58865 21.261855,0.68495 4.82828,0.0377 9.657368,0.072 14.485818,0.0398 0.15335,-0.001 2.72044,-0.0315 3.05072,-0.0144 0.72799,0.0375 1.72923,0.13418 2.05587,0.8175 0.0918,0.19203 0.0797,0.40924 0.11959,0.61386 -0.053,0.32239 -0.0817,0.64835 -0.15883,0.96718 -0.16778,0.69388 -0.63355,1.98371 -0.86757,2.62365 -0.53457,1.46168 -1.11745,2.91048 -1.67364,4.36621 -0.84467,2.034 -1.29273,4.15182 -1.71806,6.2708 -0.185,0.53232 -0.15961,1.2373 -0.51148,1.72554 -0.0929,0.1289 -0.53974,0.35682 -0.36566,0.32926 0.22268,-0.0354 0.75052,-0.29311 0.53647,-0.35631 -0.34774,-0.10278 -0.71983,0.1305 -1.07973,0.19586 -2.77417,0.20808 -5.567134,-0.0474 -8.316917,-0.36244 -0.84837,-0.0973 -1.691802,-0.22418 -2.539752,-0.32408 -0.945952,-0.11133 -1.894426,-0.20657 -2.841644,-0.30986 -5.553921,-0.59994 -11.149141,-0.81219 -16.74041,-0.95092 -3.321969,-0.0629 -6.64472,-0.10495 -9.967466,-0.12308 -1.127856,0.0144 -2.259753,-0.0688 -3.382881,0.0401 -1.091542,0.14335 -2.194356,0.19501 -3.296707,0.22837 0,0 -1.148855,0.71955 -1.148855,0.71955 v 0 c 1.098899,-0.0424 2.200738,-0.0778 3.290814,-0.21208 1.143956,-0.13067 2.302274,-0.0661 3.453129,-0.10227 3.383101,-0.0276 6.766514,-0.0518 10.14948,0.006 5.60391,0.10725 11.213053,0.29649 16.776899,0.9165 0.934783,0.11006 1.87049,0.21459 2.804346,0.33029 3.539812,0.43859 7.100916,0.98397 10.693454,0.8315 1.49686,-0.20614 1.24466,-0.0706 2.91952,-1.0014 0.15332,-0.0853 0.25346,-0.23054 0.339,-0.36874 0.31335,-0.50613 0.28158,-1.18453 0.45111,-1.72402 0.38183,-2.09864 0.79568,-4.19529 1.61452,-6.20976 0.54621,-1.45838 1.11796,-2.90923 1.6698,-4.36601 0.25486,-0.67282 0.74705,-1.94866 0.93889,-2.67115 0.0896,-0.33787 0.13141,-0.68378 0.19711,-1.02566 -0.0461,-0.22392 -0.0342,-0.46256 -0.13837,-0.67175 -0.36534,-0.73352 -1.42753,-0.8267 -2.21806,-0.85319 -0.21265,-0.008 -3.128,0.0665 -3.13529,0.0668 -4.86551,0.0702 -9.732238,0.0411 -14.598216,0.0328 -7.128636,-0.05 -14.261776,-0.15346 -21.373511,-0.60908 -1.265568,-0.0975 -2.533082,-0.17814 -3.796698,-0.29268 -3.18384,-0.28857 -6.343039,-0.7375 -9.457344,-1.37265 0,0 -1.201273,0.71851 -1.201273,0.71851 z"
       id="path47"
       style="fill:#000000;fill-opacity:0.501961;stroke:#000000;stroke-width:0.352901;opacity:0.35497835" />
    <text
       transform="matrix(0.60475842,0,0,0.68566295,22.30217,-3.7976086)"
       style="font-size:6.5741px;line-height:1.25;font-family:sans-serif;letter-spacing:0px;white-space:pre;shape-inside:url(#rect69);stroke-width:1.55294;"
       id="text67"
       xml:space="preserve"><tspan
         x="52.148438"
         y="20.677866"><tspan
           style="font-size:6.5741px">file to import</tspan></tspan></text>
    <text
       transform="matrix(0.60475842,0,0,0.68566295,2.7586962,46.678614)"
       style="font-size:6.5741px;line-height:1.25;font-family:sans-serif;letter-spacing:0px;white-space:pre;shape-inside:url(#rect75);stroke-width:1.55294;"
       id="text73"
       xml:space="preserve"><tspan
         x="70.480469"
         y="74.634897"><tspan
           style="font-size:6.5741px;shape-inside:url(#rect75);stroke-width:1.55294">HandMapperService</tspan></tspan></text>
    <text
       xml:space="preserve"
       id="text73-5"
       style="font-size:6.5741px;line-height:1.25;font-family:sans-serif;letter-spacing:0px;white-space:pre;shape-inside:url(#rect75-7);stroke-width:1.55294;"
       transform="matrix(0.60475842,0,0,0.68566295,3.5439632,-15.935905)"><tspan
         x="70.480469"
         y="74.634897"><tspan
           style="font-size:6.5741px">FileParserService</tspan></tspan></text>
    <text
       transform="matrix(0.60475842,0,0,0.68566295,1.8570432,105.94721)"
       style="font-size:6.5741px;line-height:1.25;font-family:sans-serif;letter-spacing:0px;white-space:pre;shape-inside:url(#rect75-7-2);stroke-width:1.55294;"
       id="text73-5-9"
       xml:space="preserve"><tspan
         x="70.480469"
         y="74.634897"><tspan
           style="font-size:6.5741px;shape-inside:url(#rect75-7-2);stroke-width:1.55294">HandEvaluatorService</tspan></tspan></text>
    <path
       style="fill:#00ffff;fill-opacity:0.501961;stroke:#000000;stroke-width:0.264583;opacity:0.48484848"
       id="path99"
       d="m 87.982384,33.6159 c 2.69811,0.246812 5.41811,0.266965 8.1279,0.348018 1.73213,0.05385 3.4654,0.06735 5.198286,0.09101 0,0 1.7666,-1.126623 1.7666,-1.126623 v 0 c -1.7527,-7.55e-4 -3.505236,-0.01605 -5.257576,-0.04844 -2.64515,-0.05471 -5.31529,-0.06821 -7.93211,-0.43979 0,0 -1.9031,1.175821 -1.9031,1.175821 z" />
    <ellipse
       id="path101"
       style="fill:#00ffff;stroke:#000000;stroke-width:0.264583;opacity:0.48484848"
       cx="104.58932"
       cy="33.23632"
       rx="0.016111761"
       ry="0.01826719" />
    <path
       style="fill:#00ffff;fill-opacity:0.501961;stroke:#000000;stroke-width:0.264583;opacity:0.48484848"
       id="path103"
       d="m 100.37419,28.923289 c 1.13924,0.619177 2.22445,1.352513 3.31659,2.069749 0.7849,0.519125 1.57969,1.018367 2.36921,1.528341 0.25652,0.165694 0.95376,0.589914 1.20866,0.839646 0.10394,0.101761 0.17105,0.243477 0.25657,0.365215 -0.0168,0.110289 6e-4,0.23498 -0.0501,0.330854 -0.12939,0.243785 -0.65778,0.636379 -0.81702,0.755371 -0.20741,0.154997 -0.83739,0.605961 -0.6335,0.445062 0.24522,-0.193494 0.61443,-0.245673 0.75759,-0.542977 0.11971,-0.248562 -0.44961,0.246846 -0.67441,0.370268 -0.73036,0.389414 -1.48723,0.707162 -2.2263,1.073763 0,0 -1.37235,1.233738 -1.37235,1.233738 v 0 c 0.74615,-0.387175 1.51452,-0.711979 2.26114,-1.098198 1.28609,-0.698322 0.92641,-0.483543 2.84869,-1.738412 0.42019,-0.274307 1.28027,-0.822654 1.44015,-1.405662 0.0395,-0.14413 -0.017,-0.301247 -0.0256,-0.451868 -0.10321,-0.132077 -0.18878,-0.285164 -0.30974,-0.396251 -0.23509,-0.215901 -1.02143,-0.686257 -1.24555,-0.827129 -0.79298,-0.498377 -1.58907,-0.991688 -2.36173,-1.530053 -1.07222,-0.719735 -2.14319,-1.441508 -3.22824,-2.136013 0,0 -1.51404,1.114556 -1.51404,1.114556 z" />
    <path
       style="fill:#000000;fill-opacity:0.501961;stroke:#000000;stroke-width:0.264583;opacity:0.35497835"
       id="path105"
       d="m 131.61666,21.58917 c -1.71219,0.02058 -3.42052,-0.0019 -5.12707,0.08358 -2.65861,0.157261 -4.93492,0.894629 -7.07765,1.719004 -1.37546,0.573609 -2.72342,1.167437 -3.95713,1.826741 -1.12163,0.597328 -1.83047,1.329017 -2.38719,2.108175 -0.39199,0.633912 -0.6542,1.291044 -0.84926,1.950119 -0.16431,0.714344 -0.12968,1.438369 -0.1315,2.156998 -0.15035,1.101867 0.50319,2.122114 1.24594,3.131625 1.54183,1.579092 4.06476,2.733229 6.63482,3.822682 1.70323,0.666935 3.49964,1.317585 5.49019,1.721374 1.5776,0.320025 3.35016,0.546383 4.96942,0.777524 5.33695,0.716638 10.74572,1.292105 16.22414,1.586661 2.10784,0.0797 4.21448,-0.02646 6.19131,-0.441087 1.8007,-0.377693 3.45881,-0.96998 5.10959,-1.479008 2.60945,-1.04082 5.01253,-2.265642 6.93429,-3.674137 0.35972,-0.263646 0.67353,-0.544202 1.01028,-0.816304 0.71436,-0.740503 1.55053,-1.526748 1.72071,-2.374724 0.19516,-0.972391 -0.34794,-1.917722 -0.82602,-2.839595 -1.10046,-1.711866 -2.92633,-3.246099 -4.85707,-4.721482 -1.57749,-1.273156 -3.39224,-2.081668 -5.74676,-2.918197 -1.58914,-0.508119 -3.26947,-0.953785 -5.05871,-1.225226 -1.2402,-0.188149 -1.73025,-0.20957 -3.01996,-0.321788 -3.57149,-0.2289 -7.17706,-0.230903 -10.76919,-0.259631 -1.67231,0.0031 -3.34753,-0.0453 -5.01929,-0.0094 -1.2224,0.06519 -2.43643,0.185843 -3.65194,0.284059 0,0 -2.01504,0.803096 -2.01504,0.803096 v 0 c 1.1786,-0.087 2.35775,-0.176372 3.53701,-0.253052 1.70835,-0.07283 3.43133,-0.01804 5.14278,-0.04995 3.58587,0.0018 7.18454,0.0087 10.74883,0.242412 1.26601,0.110034 1.75208,0.131964 2.97015,0.314558 1.77317,0.265798 3.4516,0.689031 5.02515,1.194094 0.93287,0.331551 1.36744,0.468629 2.23333,0.844176 1.34409,0.582956 2.45638,1.286126 3.47616,2.028879 1.95068,1.450159 3.77042,2.968761 4.86564,4.666377 0.35647,0.703775 0.65993,1.164306 0.75416,1.895752 0.15061,1.168758 -0.67613,2.224966 -1.74455,3.220694 -0.33343,0.267177 -0.6442,0.542771 -1.00029,0.801533 -1.9323,1.40421 -4.35161,2.623475 -6.99936,3.636996 0.20537,-0.05836 0.82964,-0.224424 0.61608,-0.175091 -0.49916,0.11532 -0.97103,0.262911 -1.47411,0.373301 -1.96891,0.432052 -4.07874,0.561806 -6.19492,0.509973 -5.50929,-0.236254 -10.95832,-0.760955 -16.29336,-1.53357 -2.02783,-0.30732 -2.90704,-0.407165 -4.80333,-0.81188 -1.96188,-0.418718 -3.75728,-1.033442 -5.45065,-1.698583 -2.55707,-1.061307 -5.06371,-2.19508 -6.52375,-3.774764 -0.7314,-1.03232 -1.26602,-1.98833 -1.13833,-3.104589 0.0141,-0.716882 0.007,-1.437224 0.18877,-2.149075 0.18773,-0.649054 0.4494,-1.295366 0.84983,-1.917147 0.56192,-0.76383 1.29506,-1.471639 2.41274,-2.050385 1.24303,-0.647847 2.57911,-1.242669 3.96337,-1.803373 0.24825,-0.09114 1.02226,-0.336279 0.74476,-0.273433 -0.51232,0.116022 -0.98746,0.275419 -1.45692,0.434717 -0.24375,0.0827 0.51202,-0.143585 0.77769,-0.204243 0.53851,-0.122955 1.05908,-0.204898 1.63137,-0.270039 0.30047,-0.03421 0.6054,-0.0562 0.90808,-0.08432 1.66979,-0.09492 3.34395,-0.09169 5.02144,-0.05972 0,0 2.17528,-0.841161 2.17528,-0.841161 z" />
    <text
       xml:space="preserve"
       id="text109"
       style="font-size:6.5741px;line-height:1.25;font-family:sans-serif;letter-spacing:0px;white-space:pre;shape-inside:url(#rect111);fill:#000000;stroke-width:1.55294;"
       transform="matrix(0.60475842,0,0,0.68566295,36.318329,0.9303081)"><tspan
         x="137.76172"
         y="46.457163"><tspan
           style="font-size:6.5741px;shape-inside:url(#rect111);stroke-width:1.55294">FileParserServiceDTO</tspan></tspan></text>
    <text
       xml:space="preserve"
       id="text67-7"
       style="font-size:7.05556px;line-height:1.25;font-family:sans-serif;letter-spacing:0px;white-space:pre;shape-inside:url(#rect69-36);stroke-width:1.55294;"
       transform="matrix(0.60475842,0,0,0.68566295,68.536738,255.7127)"><tspan
         x="52.148438"
         y="21.103845"><tspan
           style="stroke-width:1.55294">ShowResult</tspan></tspan></text>
    <path
       d="m 145.21198,82.026437 c -1.91903,0.02233 -3.83369,-0.0024 -5.74639,0.09075 -2.97974,0.170766 -5.53102,0.971484 -7.9326,1.866678 -1.54157,0.622881 -3.05239,1.267724 -4.43513,1.983662 -1.25711,0.648639 -2.05157,1.443185 -2.67554,2.289271 -0.43934,0.68837 -0.73323,1.40195 -0.95185,2.11765 -0.18418,0.7757 -0.14525,1.56192 -0.14738,2.34228 -0.1685,1.19652 0.564,2.30441 1.39648,3.40064 1.72807,1.71474 4.55574,2.96803 7.43626,4.151072 1.90896,0.72422 3.92236,1.43076 6.15336,1.86923 1.76817,0.34752 3.75485,0.59333 5.56972,0.84432 5.98161,0.7782 12.04374,1.4031 18.18392,1.72296 2.36246,0.0866 4.72355,-0.0287 6.93922,-0.47898 2.0182,-0.41013 3.8766,-1.0533 5.72678,-1.60606 2.92462,-1.13022 5.618,-2.46026 7.77188,-3.989762 0.40319,-0.28628 0.75489,-0.59094 1.13235,-0.88642 0.80065,-0.80411 1.73782,-1.6579 1.92854,-2.57871 0.21874,-1.05593 -0.38996,-2.08246 -0.92578,-3.08353 -1.2334,-1.85892 -3.27984,-3.52494 -5.44379,-5.12707 -1.76805,-1.382521 -3.80199,-2.260482 -6.44091,-3.16887 -1.7811,-0.551767 -3.66442,-1.035728 -5.6698,-1.330483 -1.39,-0.204316 -1.93923,-0.22757 -3.38474,-0.349432 -4.00293,-0.24856 -8.04403,-0.250736 -12.07007,-0.281933 -1.87432,0.0032 -3.7519,-0.04919 -5.6256,-0.01047 -1.37006,0.07073 -2.73073,0.201801 -4.09308,0.308449 0,0 -2.25843,0.872092 -2.25843,0.872092 v 0 c 1.32096,-0.09448 2.64256,-0.191523 3.96425,-0.274788 1.91471,-0.0791 3.84583,-0.01961 5.764,-0.05423 4.01902,0.0024 8.05239,0.0094 12.04725,0.263233 1.41893,0.119495 1.9637,0.143295 3.32892,0.341576 1.98736,0.288634 3.86854,0.748228 5.63219,1.296672 1.04555,0.360031 1.53263,0.508889 2.5031,0.916696 1.50642,0.633032 2.75307,1.396604 3.89602,2.203166 2.18631,1.574722 4.22586,3.223782 5.45341,5.067232 0.39952,0.76423 0.73964,1.26432 0.84528,2.0586 0.16878,1.26916 -0.75783,2.4161 -1.95534,3.49736 -0.3737,0.29012 -0.722,0.58939 -1.12108,0.87038 -2.16575,1.524842 -4.87726,2.848842 -7.84482,3.949432 0.23014,-0.0633 0.92982,-0.2437 0.69046,-0.19014 -0.55946,0.12523 -1.08832,0.28549 -1.65215,0.40538 -2.20678,0.46916 -4.57145,0.61006 -6.94325,0.55378 -6.17479,-0.25655 -12.28204,-0.82633 -18.26153,-1.66531 -2.27276,-0.33372 -3.25819,-0.44215 -5.38354,-0.88162 -2.19886,-0.4547 -4.21115,-1.12222 -6.10905,-1.844502 -2.86596,-1.15247 -5.67537,-2.38365 -7.3118,-4.09903 -0.81973,-1.121 -1.41892,-2.15913 -1.27582,-3.37127 0.0163,-0.77847 0.008,-1.5607 0.21157,-2.33369 0.21039,-0.70481 0.50369,-1.40665 0.95246,-2.081835 0.62982,-0.829451 1.45152,-1.598063 2.7042,-2.226525 1.3932,-0.703497 2.89066,-1.349417 4.44213,-1.958285 0.27823,-0.09898 1.14574,-0.365166 0.83471,-0.296918 -0.57418,0.125981 -1.10674,0.299078 -1.6329,0.472061 -0.2732,0.08981 0.57386,-0.155929 0.87164,-0.221796 0.60354,-0.13352 1.18701,-0.222488 1.82842,-0.293234 0.33678,-0.03717 0.67852,-0.06102 1.01777,-0.09156 1.87148,-0.103076 3.7479,-0.09956 5.628,-0.06484 0,0 2.43805,-0.913419 2.43805,-0.913419 z"
       id="path105-3"
       style="fill:#000000;fill-opacity:0.501961;stroke:#000000;stroke-width:0.264583;opacity:0.35497835" />
    <g
       id="g162"
       transform="matrix(0.60475842,0,0,0.68566295,42.725332,9.5295191)"
       style="stroke-width:1.55294">
      <text
         transform="translate(2.98946,75.207212)"
         xml:space="preserve"
         id="text109-5"
         style="font-size:6.5741px;line-height:1.25;font-family:sans-serif;letter-spacing:0px;white-space:pre;shape-inside:url(#rect111-5);stroke-width:1.89965;"><tspan
           x="137.76172"
           y="46.457163"><tspan
             style="font-size:6.5741px;shape-inside:url(#rect111-5);stroke-width:1.55294">HandMapperServiceDTO</tspan></tspan></text>
    </g>
    <text
       xml:space="preserve"
       id="text194"
       style="font-size:10.5833px;line-height:1.25;font-family:sans-serif;letter-spacing:0px;white-space:pre;shape-inside:url(#rect196);stroke-width:1.58624;"
       transform="matrix(0.63629662,0,0,0.62459799,67.959056,2.1520629)" />
    <path
       style="fill:#00ffff;fill-opacity:0.501961;stroke:#000000;stroke-width:0.264583;opacity:0.48484848"
       id="path200"
       d="m 94.130774,94.872238 c 1.62731,-0.054 3.25565,-0.0352 4.88344,-0.0369 2.086796,-0.0249 4.173656,-0.013 6.260466,0.003 1.28076,0.007 2.56139,0.018 3.84213,0.009 1.56428,-0.02 3.12863,-0.007 4.69293,5.4e-4 0.84989,0.002 1.69974,0.006 2.5496,0.0138 0,0 1.42983,-1.1778 1.42983,-1.1778 v 0 c -0.86101,0.008 -1.722,0.0111 -2.58303,0.0138 -1.56476,0.008 -3.12958,0.0207 -4.69432,5.5e-4 -1.28791,-0.009 -2.57568,0.002 -3.86361,0.009 -2.08934,0.0159 -4.17877,0.0283 -6.26815,0.003 -1.597896,-0.002 -3.196426,0.0181 -4.793816,-0.0369 0,0 -1.45547,1.19892 -1.45547,1.19892 z" />
    <path
       style="fill:#00ffff;fill-opacity:0.501961;stroke:#000000;stroke-width:0.264583;opacity:0.48484848"
       id="path202"
       d="m 111.37146,90.829318 c 1.41629,0.63373 2.79862,1.36378 4.14872,2.16098 0.45941,0.33442 1.46342,1.08468 1.47316,1.80637 10e-4,0.12103 -0.0494,0.23553 -0.074,0.3533 0.22037,0.0674 -0.96124,0.85389 -0.71206,0.65367 0.27745,-0.22296 0.68149,-0.30068 0.85389,-0.63303 0.12645,-0.24373 -0.45951,0.22017 -0.69232,0.32156 -0.21831,0.0951 -0.44047,0.17841 -0.66069,0.26762 0,0 -1.35488,1.19787 -1.35488,1.19787 v 0 c 1.42003,-0.56317 1.97016,-0.88298 3.47473,-1.87513 0.1665,-0.10979 0.32845,-0.23652 0.4611,-0.39488 0.0995,-0.11895 0.14882,-0.28139 0.22324,-0.42209 0.0127,-0.14394 0.0504,-0.28802 0.037,-0.43183 -0.079,-0.84095 -1.04111,-1.50805 -1.59198,-1.91361 -1.35071,-0.76553 -2.73181,-1.45977 -4.09022,-2.2076 0,0 -1.49564,1.1168 -1.49564,1.1168 z" />
    <path
       style="fill:#000000;fill-opacity:0.501961;stroke:#000000;stroke-width:0.264583;opacity:0.35497835"
       id="path45-1"
       d="m 44.326635,269.21224 c 0.02438,0.77604 0.02741,1.55272 0.03157,2.32915 0.0046,1.33686 0.0083,2.67371 0.0057,4.01056 -0.0028,1.22746 0.12428,2.44578 0.288845,3.65668 0.123184,0.87034 0.2563,1.73762 0.327268,2.61587 0.02855,0.38035 0.03716,0.76194 0.04193,1.14343 0,0 0.784175,-0.45581 0.784175,-0.45581 v 0 c -0.01211,-0.381 -0.02619,-0.76212 -0.05907,-1.14168 -0.08324,-0.87509 -0.22653,-1.73863 -0.353844,-2.60644 -0.174892,-1.2021 -0.293175,-2.4144 -0.298332,-3.63432 -0.0024,-1.3391 0.0012,-2.67819 0.0057,-4.01729 0.0043,-0.7886 0.0075,-1.57742 0.03157,-2.36564 0,0 -0.805765,0.46549 -0.805765,0.46549 z" />
    <path
       style="fill:#000000;fill-opacity:0.501961;stroke:#000000;stroke-width:0.352901;opacity:0.35497835"
       id="path47-2"
       d="m 44.601015,264.66331 c 2.84029,0.47 5.686635,0.89559 8.557248,1.14732 1.121412,0.0984 2.24542,0.16555 3.368129,0.24833 6.152294,0.40737 12.31633,0.58865 18.480729,0.68494 4.196722,0.0375 8.39415,0.0721 12.591023,0.0398 0.13328,-0.001 2.36459,-0.0314 2.65167,-0.0144 0.63277,0.0375 1.50304,0.13419 1.78696,0.81752 0.0798,0.19203 0.0693,0.40923 0.1039,0.61384 -0.046,0.3224 -0.071,0.64837 -0.13805,0.96717 -0.14584,0.69389 -0.55068,1.98373 -0.7541,2.62366 -0.46464,1.46169 -0.97128,2.91049 -1.45471,4.36621 -0.73419,2.03401 -1.12364,4.15183 -1.49333,6.27082 -0.16081,0.53232 -0.13874,1.2373 -0.44458,1.72554 -0.0807,0.12891 -0.46914,0.35681 -0.31783,0.32925 0.19355,-0.0354 0.65235,-0.29309 0.4663,-0.3563 -0.30226,-0.10279 -0.62568,0.1305 -0.9385,0.19585 -2.411305,0.20807 -4.838932,-0.0474 -7.229033,-0.36242 -0.737401,-0.0973 -1.470506,-0.22421 -2.207545,-0.32411 -0.822216,-0.11146 -1.646629,-0.20657 -2.469947,-0.30983 -4.827448,-0.59995 -9.690793,-0.81221 -14.550702,-0.95093 -2.887445,-0.063 -5.775568,-0.10495 -8.663688,-0.12308 -0.980329,0.0144 -1.964168,-0.0688 -2.940387,0.0401 -0.948764,0.14333 -1.907326,0.19499 -2.865483,0.22835 0,0 -0.998583,0.71956 -0.998583,0.71956 v 0 c 0.955159,-0.0424 1.912874,-0.0776 2.860364,-0.21209 0.994322,-0.13065 2.001128,-0.0661 3.001447,-0.10227 2.940581,-0.0276 5.88143,-0.0518 8.821891,0.006 4.870899,0.10725 9.746345,0.29648 14.582424,0.91648 0.812503,0.11018 1.625818,0.21459 2.437525,0.3303 3.076793,0.43859 6.172084,0.98396 9.294707,0.83147 1.30107,-0.20613 1.08186,-0.0706 2.53764,-1.00138 0.13327,-0.0852 0.22031,-0.23055 0.29466,-0.36873 0.27236,-0.50614 0.24475,-1.18454 0.3921,-1.72405 0.33188,-2.0986 0.69161,-4.19529 1.40333,-6.20974 0.47476,-1.45836 0.97173,-2.90922 1.45139,-4.36602 0.22153,-0.67282 0.64933,-1.94865 0.81608,-2.67115 0.078,-0.33786 0.11422,-0.68378 0.17133,-1.02565 -0.0401,-0.22393 -0.0298,-0.46256 -0.12026,-0.67177 -0.31755,-0.73351 -1.24081,-0.82669 -1.92793,-0.8532 -0.18485,-0.006 -2.71886,0.0667 -2.72519,0.0668 -4.229082,0.0704 -8.459229,0.0411 -12.688714,0.0328 -6.196185,-0.0499 -12.396289,-0.15346 -18.577782,-0.60906 -1.100024,-0.0976 -2.201746,-0.17814 -3.300074,-0.29268 -2.767384,-0.28857 -5.513347,-0.7375 -8.220291,-1.37264 0,0 -1.044139,0.7185 -1.044139,0.7185 z" />
    <text
       xml:space="preserve"
       id="text73-5-9-7"
       style="font-size:6.5741px;line-height:1.25;font-family:sans-serif;letter-spacing:0px;white-space:pre;shape-inside:url(#rect75-7-2-9);stroke-width:1.55294;"
       transform="matrix(0.60475842,0,0,0.68566295,3.9097372,224.95549)"><tspan
         x="70.480469"
         y="74.634897"><tspan
           style="font-size:6.5741px;shape-inside:url(#rect75-7-2-9);stroke-width:1.55294">StatisticViewService</tspan></tspan></text>
    <path
       style="fill:#000000;fill-opacity:0.501961;stroke:#000000;stroke-width:0.264583;opacity:0.35497835"
       id="path105-3-0"
       d="m 149.29061,145.2955 c -2.04045,0.019 -4.07629,-0.003 -6.11002,0.0774 -3.1683,0.14566 -5.88103,0.82863 -8.43454,1.59218 -1.63913,0.53129 -3.24556,1.08129 -4.71578,1.69196 -1.33667,0.55325 -2.18139,1.23095 -2.84486,1.95263 -0.46711,0.58714 -0.77963,1.19579 -1.01205,1.80624 -0.19582,0.66163 -0.15452,1.33224 -0.15668,1.99784 -0.17917,1.02056 0.59969,1.96554 1.48481,2.90056 1.83743,1.46259 4.84403,2.53158 7.90682,3.54064 2.02975,0.61772 4.17057,1.22036 6.54273,1.59435 1.88006,0.29642 3.99245,0.50607 5.92215,0.72018 6.36012,0.66375 12.80585,1.19675 19.33455,1.46958 2.51195,0.0738 5.02246,-0.0244 7.37831,-0.40853 2.14589,-0.34982 4.12191,-0.89843 6.08918,-1.3699 3.10967,-0.96401 5.97346,-2.09846 8.26367,-3.40304 0.42867,-0.24418 0.80263,-0.50405 1.20397,-0.75607 0.85134,-0.68587 1.84779,-1.4141 2.0506,-2.19952 0.23258,-0.90064 -0.41465,-1.77622 -0.98439,-2.63008 -1.31143,-1.58556 -3.48734,-3.00659 -5.78826,-4.37311 -1.8799,-1.17923 -4.04257,-1.92808 -6.84847,-2.70289 -1.89378,-0.47064 -3.8963,-0.88342 -6.02854,-1.13483 -1.47797,-0.17427 -2.06198,-0.19411 -3.59894,-0.29805 -4.25621,-0.21201 -8.55303,-0.21386 -12.8338,-0.24047 -1.99294,0.004 -3.98932,-0.042 -5.9816,-0.009 -1.45675,0.0604 -2.90352,0.17212 -4.35206,0.26309 0,0 -2.40135,0.74385 -2.40135,0.74385 v 0 c 1.40455,-0.0806 2.80977,-0.16337 4.21508,-0.23438 2.03589,-0.0674 4.08922,-0.0167 6.12877,-0.0462 4.27333,0.003 8.56192,0.008 12.80956,0.22452 1.50871,0.10189 2.08796,0.12219 3.53955,0.29135 2.11312,0.24618 4.11333,0.63819 5.98857,1.10599 1.1117,0.3071 1.6296,0.43406 2.66147,0.78189 1.60176,0.53995 2.9273,1.19124 4.14258,1.87919 2.32467,1.34316 4.49326,2.74972 5.7985,4.32209 0.42479,0.65183 0.78639,1.07838 0.89873,1.75586 0.17948,1.08253 -0.80576,2.06081 -2.07905,2.98307 -0.39735,0.24745 -0.76768,0.50272 -1.19202,0.74239 -2.30279,1.3006 -5.18587,2.42991 -8.34123,3.36864 0.24472,-0.0541 0.98868,-0.20786 0.73418,-0.16217 -0.59489,0.10673 -1.15722,0.24352 -1.75674,0.34576 -2.34637,0.40017 -4.8607,0.52036 -7.38256,0.47234 -6.56554,-0.21882 -13.05921,-0.7048 -19.41706,-1.4204 -2.4166,-0.28465 -3.46438,-0.37714 -5.7242,-0.75198 -2.33802,-0.38784 -4.47761,-0.9572 -6.49562,-1.57326 -3.0473,-0.983 -6.0345,-2.03313 -7.77447,-3.49626 -0.8716,-0.95614 -1.50871,-1.84162 -1.35656,-2.87551 0.0164,-0.664 0.01,-1.33118 0.22496,-1.99052 0.22372,-0.60116 0.53556,-1.1998 1.01274,-1.77569 0.66967,-0.70747 1.54335,-1.36305 2.87531,-1.8991 1.48137,-0.60006 3.07358,-1.15099 4.72321,-1.67032 0.29583,-0.0844 1.21824,-0.31148 0.88754,-0.25326 -0.61053,0.10738 -1.17679,0.25509 -1.73624,0.40264 -0.29048,0.0766 0.61017,-0.133 0.92678,-0.18918 0.64177,-0.11389 1.26215,-0.18977 1.94414,-0.25011 0.35808,-0.0317 0.72144,-0.0521 1.08216,-0.078 1.98991,-0.088 3.98507,-0.0849 5.98416,-0.0553 0,0 2.59231,-0.7791 2.59231,-0.7791 z" />
    <text
       transform="matrix(0.60475842,0,0,0.68566295,47.551396,123.64647)"
       xml:space="preserve"
       id="text109-5-6"
       style="font-size:6.5741px;line-height:1.25;font-family:sans-serif;letter-spacing:0px;white-space:pre;shape-inside:url(#rect111-5-6);stroke-width:1.55294;"><tspan
         x="137.76172"
         y="46.457163"><tspan
           style="font-size:6.5741px;shape-inside:url(#rect111-5-6);stroke-width:1.55294">HandEvaluatorServiceDTO</tspan></tspan></text>
    <path
       d="m 97.201524,156.33138 c 1.62731,-0.054 3.255636,-0.0351 4.883436,-0.0369 2.08682,-0.0249 4.17366,-0.013 6.26046,0.004 1.28079,0.008 2.56137,0.018 3.84213,0.009 1.56429,-0.02 3.12863,-0.008 4.69294,5.2e-4 0.84989,0.003 1.69975,0.005 2.5496,0.0138 0,0 1.42982,-1.1778 1.42982,-1.1778 v 0 c -0.86099,0.008 -1.72199,0.0115 -2.58302,0.0138 -1.56475,0.008 -3.12959,0.0207 -4.69433,5.5e-4 -1.28791,-0.009 -2.57568,0.003 -3.86358,0.009 -2.08937,0.016 -4.17879,0.0283 -6.26816,0.004 -1.59792,-0.003 -3.19644,0.0181 -4.793826,-0.0369 0,0 -1.45547,1.19892 -1.45547,1.19892 z"
       id="path200-2"
       style="fill:#00ffff;fill-opacity:0.501961;stroke:#000000;stroke-width:0.264583;opacity:0.48484848" />
    <path
       d="m 114.4422,152.28846 c 1.41629,0.63374 2.79862,1.36378 4.14874,2.16098 0.4594,0.33442 1.46342,1.08469 1.47315,1.80638 0.001,0.12104 -0.0494,0.23552 -0.074,0.35329 0.22037,0.0674 -0.96124,0.8539 -0.71206,0.65368 0.27747,-0.22297 0.6815,-0.30069 0.85389,-0.63304 0.12645,-0.24372 -0.45951,0.22017 -0.69232,0.32156 -0.21831,0.0951 -0.44045,0.17842 -0.66069,0.26763 0,0 -1.35487,1.19786 -1.35487,1.19786 v 0 c 1.42002,-0.56317 1.97015,-0.88298 3.47473,-1.87513 0.16649,-0.10981 0.32844,-0.23651 0.46108,-0.39487 0.0998,-0.119 0.14884,-0.2814 0.22326,-0.4221 0.0127,-0.14394 0.0504,-0.28802 0.037,-0.43182 -0.079,-0.84096 -1.04112,-1.50806 -1.59198,-1.91362 -1.35071,-0.76552 -2.73182,-1.45978 -4.09024,-2.20759 0,0 -1.49561,1.11679 -1.49561,1.11679 z"
       id="path202-6"
       style="fill:#00ffff;fill-opacity:0.501961;stroke:#000000;stroke-width:0.264583;opacity:0.48484848" />
    <path
       style="fill:#000000;fill-opacity:0.501961;stroke:#000000;stroke-width:0.264583;opacity:0.35497835"
       id="path332"
       d="m 133.11776,260.88521 c -0.0574,1.36509 -0.12645,2.72915 -0.15563,4.09551 -4.8e-4,1.82324 -0.0364,3.64255 -0.16761,5.46003 -0.0656,1.20414 -0.22447,2.40604 -0.21516,3.61473 0.004,0.48792 0.0439,0.92761 0.0798,1.41112 0.10565,0.98051 0.18029,1.96323 0.21613,2.95007 0.0126,0.59513 0.009,0.30331 0.0149,0.87549 0,0 1.57601,-0.91502 1.57601,-0.91502 v 0 c -0.0141,-0.57147 -0.006,-0.27977 -0.0237,-0.87515 -0.0371,-0.98665 -0.11298,-1.96918 -0.24151,-2.94641 -0.14774,-1.66294 -0.0459,-3.31675 0.11482,-4.9759 0.13277,-1.82314 0.15075,-3.64936 0.17886,-5.47766 0.0441,-1.38132 0.097,-2.76262 0.21868,-4.13851 0,0 -1.59553,0.9217 -1.59553,0.9217 z" />
    <path
       style="fill:#000000;fill-opacity:0.501961;stroke:#000000;stroke-width:0.264583;opacity:0.35497835"
       id="path334"
       d="m 137.41921,261.11239 c 3.44785,0.10559 6.89978,0.0499 10.34896,0.052 3.88244,0.0447 7.77192,-0.0723 11.64428,0.30202 0.72417,0.125 1.70775,0.1098 2.18146,0.88491 0.23238,0.38029 0.2254,0.63415 0.29852,1.08493 -10e-4,0.31228 0.0127,0.62515 -0.004,0.93681 -0.0372,0.67961 -0.20364,2.00751 -0.27601,2.65367 -0.16611,1.48336 -0.3124,2.96064 -0.4132,4.4515 -0.178,1.84507 -0.0942,3.66855 0.0363,5.50843 0.001,0.36346 0.0814,0.63925 -0.19329,0.91345 -0.12743,0.1273 -0.50694,0.44606 -0.45338,0.26337 0.0898,-0.3066 0.83554,-0.55686 0.58374,-0.70811 -0.42788,-0.257 -0.9602,0.14608 -1.44272,0.19218 -0.64625,0.0617 -1.29478,0.0872 -1.94217,0.13066 -4.38667,0.1862 -8.7779,0.14656 -13.16666,0.1158 -2.3353,-0.0444 -4.66199,0.15121 -6.98152,0.4313 -0.68143,0.0774 -1.34946,0.2666 -2.03398,0.29844 0,0 -1.43154,1.186 -1.43154,1.186 v 0 c 0.7081,-0.0115 1.39234,-0.23871 2.09517,-0.32878 2.36051,-0.31766 4.7269,-0.58774 7.10838,-0.56297 4.39269,-0.0144 8.78557,-0.0269 13.17773,-0.11466 0.0584,-10e-4 2.95438,-0.0822 3.27698,-0.19194 0.82896,-0.2823 1.60493,-0.73909 2.38438,-1.16571 0.53894,-0.29497 0.62653,-0.75595 0.56436,-1.37215 -0.16304,-1.80376 -0.26999,-3.6076 -0.12448,-5.42172 0.096,-1.48997 0.23946,-2.96218 0.41927,-4.44234 0.0551,-0.45391 0.28648,-2.20325 0.32461,-2.70576 0.0252,-0.33064 0.0186,-0.66338 0.0279,-0.99508 -0.083,-0.49843 -0.0777,-0.77332 -0.33478,-1.19666 -0.51277,-0.84389 -1.5342,-0.84107 -2.33019,-0.94117 -3.95319,-0.25711 -7.91157,-0.07 -11.86881,-0.13259 -3.336,-0.036 -6.68033,-0.0263 -10.00898,-0.30345 0,0 -1.46541,1.17746 -1.46541,1.17746 z" />
    <path
       style="fill:#000000;fill-opacity:0.501961;stroke:#000000;stroke-width:0.264583;opacity:0.35497835"
       id="path336"
       d="m 140.72224,283.49253 c 0.0517,-0.13917 0.0823,-0.29119 0.15536,-0.41737 0.58647,-1.01217 1.43912,-1.87732 2.2556,-2.64109 0.27608,-0.25829 0.64267,-0.40987 0.85489,-0.73666 0.15975,-0.246 -0.45892,0.32015 -0.68837,0.48024 0.3387,-0.14752 0.66916,-0.35292 1.04831,-0.31773 0.67042,0.062 1.14166,0.85545 1.51401,1.38701 0.74562,1.10494 1.42462,2.26438 2.0682,3.4481 0.45595,0.92872 0.93703,1.82917 1.56877,2.61684 0.16904,0.25549 1.10659,1.17527 1.12641,1.43862 0.004,0.0559 -0.0757,0.0721 -0.11348,0.10802 0.36742,-0.29803 0.89217,-0.44064 1.10223,-0.89409 0.11788,-0.25439 -0.49902,0.10317 -0.75084,0.13565 -1.40746,0.18096 -2.83802,0.16953 -4.25229,0.18557 -2.1066,0.008 -4.21236,-0.0981 -6.31738,-0.18087 -0.49674,-0.0824 -1.8695,0.0273 -2.26679,-0.39678 -0.15073,-0.16086 -0.10663,-0.31303 -0.10125,-0.51552 0.0955,-0.26967 0.16474,-0.50715 0.32424,-0.74679 0.5096,-0.76565 1.28355,-1.44363 1.93204,-2.05368 0.68793,-0.69862 1.55858,-1.22085 2.06516,-2.11793 0.1377,-0.32 0.18876,-0.66614 0.23891,-1.01324 0,0 -1.60324,0.88628 -1.60324,0.88628 v 0 c -0.0551,0.32512 -0.11078,0.64594 -0.26783,0.93266 -0.54793,0.82586 -1.35716,1.36135 -2.0298,2.04373 -0.67113,0.64628 -1.4337,1.31124 -1.94116,2.13906 -0.20635,0.33662 -0.21572,0.48648 -0.30451,0.8563 0.0254,0.28464 -0.002,0.46657 0.2003,0.68649 0.47568,0.51434 1.81011,0.31017 2.40046,0.4075 2.10822,0.0571 4.21561,0.19875 6.32428,0.18519 1.08588,-0.0207 2.17223,-0.0347 3.25753,-0.0836 0.0372,-10e-4 1.58917,-0.0756 1.69943,-0.12777 0.67331,-0.31949 1.28252,-0.79058 1.92378,-1.18587 0.007,-0.0931 0.0443,-0.18968 0.0207,-0.27912 -0.0846,-0.31991 -0.94832,-1.14507 -1.15568,-1.45028 -0.63493,-0.76764 -1.12155,-1.65237 -1.57728,-2.56715 -0.65323,-1.18523 -1.3396,-2.3472 -2.08089,-3.46429 -0.39602,-0.5837 -0.88619,-1.43417 -1.59631,-1.56232 -0.41027,-0.0742 -0.768,0.14286 -1.13717,0.29218 -0.72454,0.47544 -1.46723,0.91698 -2.17359,1.42637 -0.29713,0.21426 -0.56184,0.48213 -0.83059,0.74009 -0.84654,0.81269 -1.7233,1.71394 -2.33787,2.77292 -0.0824,0.14206 -0.11983,0.31159 -0.17984,0.46737 0,0 1.62574,-0.88405 1.62574,-0.88405 z" />
    <path
       style="fill:#00ffff;fill-opacity:0.501961;stroke:#000000;stroke-width:0.264583;opacity:0.48484848"
       id="path338"
       d="m 102.41409,275.7769 c 2.46846,-0.72369 5.05926,-0.79349 7.59486,-0.94103 1.46772,-0.078 2.93659,-0.11862 4.40566,-0.14014 0,0 1.37068,-1.13434 1.37068,-1.13434 v 0 c -1.50251,0.0531 -3.00471,0.11593 -4.50549,0.21557 -2.4845,0.16136 -4.99054,0.24305 -7.44515,0.73435 0,0 -1.42056,1.26552 -1.42056,1.26552 z" />
    <path
       style="fill:#00ffff;fill-opacity:0.501961;stroke:#000000;stroke-width:0.264583;opacity:0.48484848"
       id="path340"
       d="m 116.52851,271.95572 c 1.42817,0.62705 3.01154,0.86975 4.37513,1.68704 0.18618,0.11159 0.34569,0.27283 0.51854,0.40925 0.68122,0.0493 -0.32452,0.76525 -0.14574,0.66204 0.31817,-0.18371 0.80142,-0.26487 0.90317,-0.6529 0.0825,-0.31479 -0.54117,0.23617 -0.81863,0.33048 -0.48776,0.16577 -1.26209,0.33972 -1.76224,0.45974 0,0 -1.34547,1.15738 -1.34547,1.15738 v 0 c 1.99098,-0.47154 2.81925,-0.59454 4.64051,-2.09337 0.12546,-0.10317 0.19745,-0.30328 0.19406,-0.47893 -0.002,-0.16684 -0.14121,-0.29288 -0.2118,-0.43932 -0.18979,-0.13901 -0.36748,-0.30211 -0.56937,-0.41724 -1.35848,-0.77454 -2.91337,-1.01954 -4.29072,-1.74645 0,0 -1.48744,1.12228 -1.48744,1.12228 z" />
    <text
       xml:space="preserve"
       style="font-size:6.67193px;line-height:1.25;font-family:sans-serif;letter-spacing:0px;stroke-width:0.264583"
       x="165.88773"
       y="75.377167"
       id="text166"
       transform="scale(1.0093215,0.99076458)"><tspan
         sodipodi:role="line"
         id="tspan164"
         x="165.88773"
         y="75.377167"
         style="stroke-width:0.264583" /><tspan
         sodipodi:role="line"
         x="165.88773"
         y="83.717079"
         style="stroke-width:0.264583"
         id="tspan168" /></text>
    <text
       id="text286"
       y="1.9338391"
       x="164.07466"
       style="font-size:6.67193px;line-height:1.25;font-family:sans-serif;letter-spacing:0px;stroke-width:0.264583"
       xml:space="preserve"
       transform="scale(1.0093215,0.99076458)"><tspan
         style="stroke-width:0.264583"
         y="1.9338391"
         x="164.07466"
         id="tspan284"
         sodipodi:role="line" /></text>
    <text
       xml:space="preserve"
       id="text129"
       style="font-size:10.5833px;line-height:1.25;font-family:sans-serif;letter-spacing:0px;white-space:pre;shape-inside:url(#rect131);stroke-width:1.58624;"
       transform="matrix(0.63629662,0,0,0.62459799,67.959056,2.1520629)" />
    <text
       xml:space="preserve"
       id="text67-5"
       style="font-size:6.5741px;line-height:1.25;font-family:sans-serif;letter-spacing:0px;white-space:pre;shape-inside:url(#rect69-36753);stroke-width:1.55294;"
       transform="matrix(0.60475842,0,0,0.68566295,20.89227,114.01572)"><tspan
         x="52.148438"
         y="20.677866"><tspan
           style="font-size:6.5741px">- main player 
</tspan></tspan><tspan
         x="52.148438"
         y="28.895491"><tspan
           style="font-size:6.5741px">- aggressivity behavior </tspan></tspan></text>
    <path
       style="fill:#00ff00;fill-opacity:0.501961;stroke:#000000;stroke-width:0.264583;opacity:0.54545455"
       id="path13-6"
       d="m 48.545093,124.19586 c 0.04801,1.45966 0.05663,2.92065 0.06916,4.38113 0.02315,2.45271 0.0088,4.90531 -0.02038,7.35783 -0.01659,1.113 -0.02534,2.22607 -0.02771,3.33922 0.01237,0.89632 -0.02304,1.79376 0.02015,2.68905 -0.005,0.12152 -0.0099,0.24306 -0.01489,0.36459 0,0 1.108417,-0.63618 1.108417,-0.63618 v 0 c 6.62e-4,-0.12307 0.0016,-0.24613 0.002,-0.3692 -0.03612,-0.89333 -0.01308,-1.78808 -0.01851,-2.68212 -0.0022,-1.10247 -0.01101,-2.20488 -0.02771,-3.30721 -0.02949,-2.44467 -0.04336,-4.88942 -0.02038,-7.33429 0.01266,-1.48712 0.02173,-2.9747 0.06916,-4.46104 0,0 -1.139397,0.65822 -1.139397,0.65822 z" />
    <path
       style="fill:#00ff00;fill-opacity:0.501961;stroke:#000000;stroke-width:0.264583;opacity:0.54545455"
       id="path15-2"
       d="m 43.858033,140.78902 c 0.644448,0.73186 1.407475,1.30974 2.15365,1.8973 0.549793,0.37132 1.040597,0.99027 1.691849,1.14294 0.399404,0.0936 0.507276,0.007 0.901791,-0.10467 1.081251,-0.49854 2.083127,-1.22882 2.872369,-2.20672 0.302868,-0.37526 0.492133,-0.69188 0.755738,-1.10057 0.409028,-0.73178 0.218801,-0.36973 0.573436,-1.08429 0,0 -1.106145,0.5601 -1.106145,0.5601 v 0 c -0.346939,0.70061 -0.158995,0.34555 -0.567338,1.06279 -0.366853,0.5582 -0.733671,1.08026 -1.19249,1.54711 -0.147861,0.15045 -0.594604,0.27136 -0.456984,0.43382 0.144032,0.17003 0.377592,-0.19854 0.559426,-0.31289 0.152859,-0.0961 -0.314919,0.1721 -0.472384,0.25815 -0.35484,0.12845 -0.479026,0.22754 -0.850686,0.16596 -0.654356,-0.10841 -1.153344,-0.73094 -1.697367,-1.09234 -0.726944,-0.57861 -1.47783,-1.14912 -2.071128,-1.90749 0,0 -1.093737,0.7408 -1.093737,0.74081 z" />
    <path
       style="fill:#00ffff;fill-opacity:0.501961;stroke:#000000;stroke-width:0.264583;opacity:0.48484848"
       id="path192"
       d="m 131.02155,44.594945 c -0.85445,2.153955 -2.00008,4.173083 -3.15869,6.173827 -2.18232,3.416094 -4.46524,6.766367 -6.73503,10.124549 -1.63897,2.40058 -3.13073,4.893707 -4.67014,7.357755 -1.36195,2.532301 -3.4068,4.250531 -5.66926,5.935927 -2.46674,1.610874 -4.86626,3.324048 -7.34884,4.910249 0.29665,-0.178205 1.2334,-0.577048 0.88995,-0.534617 -0.41252,0.05097 -0.73795,0.383098 -1.11304,0.562181 -0.35459,0.169288 -0.71254,0.331981 -1.07543,0.482658 -0.93381,0.387742 -1.89422,0.655736 -2.866115,0.925896 -1.013425,0.246706 -2.02833,0.486381 -3.047259,0.709261 0,0 -2.035577,1.548466 -2.035577,1.548466 v 0 c 1.030584,-0.235278 2.058046,-0.482923 3.087312,-0.723799 0.40894,-0.112975 1.494877,-0.407837 1.88246,-0.53657 2.338029,-0.776568 4.457559,-2.079257 6.564279,-3.323762 2.47337,-1.59997 4.8843,-3.295841 7.33828,-4.925195 2.26563,-1.713129 4.27799,-3.479358 5.64609,-6.024459 1.52827,-2.450857 3.00116,-4.935728 4.62225,-7.327805 2.24908,-3.368458 4.50387,-6.733386 6.71116,-10.129456 1.22447,-2.042065 2.40709,-4.116792 3.33699,-6.313165 0,0 -2.35939,1.108059 -2.35939,1.108059 z" />
    <path
       style="fill:#00ffff;fill-opacity:0.501961;stroke:#000000;stroke-width:0.264583;opacity:0.48484848"
       id="path194"
       d="m 92.0238,76.217908 c -0.761663,1.124828 -1.409549,2.334834 -2.084927,3.516564 -0.641265,1.108599 -1.213519,2.261171 -1.629923,3.473579 -0.02458,0.180436 -0.125193,0.659448 -0.01331,0.845667 0.570119,0.948904 2.946594,0.953243 3.848553,1.037063 3.079633,0.18986 6.132436,0.641633 9.188557,1.046689 0.31228,0.03886 0.62456,0.07771 0.93684,0.116565 0,0 2.0513,-1.455272 2.0513,-1.455272 v 0 c -0.31954,-0.03275 -0.63908,-0.06549 -0.95861,-0.09824 -3.07393,-0.348912 -6.137669,-0.791128 -9.223362,-1.029579 -0.574886,-0.05877 -3.163313,-0.171889 -3.54322,-0.813808 -0.08965,-0.151477 0.02619,-0.609277 0.05094,-0.743569 0.41666,-1.191202 0.976357,-2.324267 1.61178,-3.413863 0.67518,-1.197814 1.334143,-2.419858 2.166745,-3.516633 0,0 -2.401359,1.034836 -2.401359,1.034836 z" />
    <path
       d="m 142.61275,106.41102 c -0.85445,2.15396 -2.00008,4.17308 -3.15869,6.17383 -2.18232,3.41609 -4.46524,6.76637 -6.73503,10.12455 -1.63897,2.40058 -3.13072,4.8937 -4.67014,7.35775 -1.36195,2.5323 -3.4068,4.25053 -5.66926,5.93593 -2.46674,1.61087 -4.86626,3.32405 -7.34883,4.91025 0.29664,-0.17821 1.23339,-0.57705 0.88994,-0.53462 -0.41252,0.051 -0.73794,0.3831 -1.11304,0.56218 -0.35458,0.16929 -0.71254,0.33198 -1.07542,0.48266 -0.93382,0.38774 -1.89423,0.65574 -2.86612,0.9259 -1.01343,0.2467 -2.02833,0.48638 -3.04726,0.70926 0,0 -2.03558,1.54846 -2.03558,1.54846 v 0 c 1.03059,-0.23528 2.05805,-0.48292 3.08731,-0.7238 0.40894,-0.11297 1.49488,-0.40783 1.88246,-0.53657 2.33803,-0.77656 4.45756,-2.07925 6.56428,-3.32376 2.47337,-1.59997 4.8843,-3.29584 7.33828,-4.92519 2.26563,-1.71313 4.27799,-3.47936 5.64609,-6.02446 1.52827,-2.45086 3.00117,-4.93573 4.62225,-7.32781 2.24908,-3.36845 4.50387,-6.73338 6.71116,-10.12945 1.22447,-2.04207 2.40709,-4.1168 3.33699,-6.31317 0,0 -2.35939,1.10806 -2.35939,1.10806 z"
       id="path192-9"
       style="fill:#00ffff;fill-opacity:0.501961;stroke:#000000;stroke-width:0.264583;opacity:0.48484848" />
    <path
       d="m 103.615,138.03398 c -0.76166,1.12483 -1.40955,2.33484 -2.08492,3.51657 -0.64127,1.1086 -1.21352,2.26117 -1.629933,3.47358 -0.0246,0.18043 -0.12519,0.65944 -0.0133,0.84566 0.570123,0.94891 2.946603,0.95325 3.848563,1.03707 3.07963,0.18986 6.13243,0.64163 9.18855,1.04669 0.31228,0.0389 0.62456,0.0777 0.93684,0.11656 0,0 2.0513,-1.45527 2.0513,-1.45527 v 0 c -0.31954,-0.0328 -0.63907,-0.0655 -0.95861,-0.0982 -3.07393,-0.34891 -6.13767,-0.79113 -9.22336,-1.02958 -0.57489,-0.0588 -3.16331,-0.17189 -3.54322,-0.81381 -0.0897,-0.15147 0.0262,-0.60927 0.0509,-0.74357 0.41666,-1.1912 0.97636,-2.32426 1.61178,-3.41386 0.67518,-1.19781 1.33414,-2.41986 2.16675,-3.51663 0,0 -2.40136,1.03483 -2.40136,1.03483 z"
       id="path194-1"
       style="fill:#00ffff;fill-opacity:0.501961;stroke:#000000;stroke-width:0.264583;opacity:0.48484848" />
    <path
       style="fill:#000000;fill-opacity:0.501961;stroke:#000000;stroke-width:0.264583;opacity:0.35497835"
       id="path45-3"
       d="m 36.466851,209.1505 c 0.02438,0.77602 0.02741,1.55272 0.03157,2.32916 0.0046,1.33685 0.0083,2.6737 0.0057,4.01056 -0.0028,1.22745 0.12428,2.44577 0.288847,3.65667 0.123183,0.87032 0.256301,1.73762 0.327266,2.61586 0.02855,0.38037 0.03716,0.76194 0.04193,1.14344 0,0 0.784175,-0.45581 0.784175,-0.45581 v 0 c -0.01211,-0.38098 -0.02619,-0.76212 -0.05906,-1.14168 -0.08323,-0.87509 -0.226533,-1.73863 -0.353843,-2.60644 -0.174895,-1.2021 -0.293179,-2.41441 -0.298335,-3.63432 -0.0024,-1.3391 0.0012,-2.67818 0.0057,-4.01728 0.0043,-0.7886 0.0075,-1.57744 0.03157,-2.36565 0,0 -0.805761,0.46549 -0.805761,0.46549 z" />
    <path
       style="fill:#000000;fill-opacity:0.501961;stroke:#000000;stroke-width:0.352901;opacity:0.35497835"
       id="path47-6"
       d="m 35.711726,208.39455 c 3.753652,0.46998 7.515303,0.89558 11.309032,1.14731 1.482024,0.0983 2.967483,0.16555 4.45123,0.24831 8.130704,0.40738 16.27693,0.58865 24.423635,0.68495 5.546277,0.0377 11.093483,0.072 16.639955,0.0398 0.176154,-10e-4 3.124989,-0.0315 3.504382,-0.0144 0.836247,0.0375 1.986377,0.13418 2.361593,0.8175 0.105451,0.19203 0.09155,0.40924 0.137373,0.61386 -0.06088,0.32239 -0.09385,0.64835 -0.182449,0.96718 -0.19273,0.69388 -0.727763,1.98371 -0.996581,2.62365 -0.614068,1.46168 -1.283625,2.91048 -1.922523,4.36621 -0.97028,2.034 -1.484968,4.15182 -1.973548,6.2708 -0.21251,0.53232 -0.183345,1.2373 -0.58754,1.72554 -0.106714,0.1289 -0.620003,0.35682 -0.420036,0.32926 0.255793,-0.0354 0.862128,-0.29311 0.616246,-0.35631 -0.39945,-0.10278 -0.826874,0.1305 -1.240293,0.19586 -3.186706,0.20808 -6.395004,-0.0474 -9.553698,-0.36244 -0.974526,-0.0973 -1.943384,-0.22418 -2.917429,-0.32408 -1.086621,-0.11133 -2.176139,-0.20657 -3.264215,-0.30986 -6.379827,-0.59994 -12.807094,-0.81219 -19.229822,-0.95092 -3.815968,-0.0629 -7.632834,-0.10495 -11.449695,-0.12308 -1.295576,0.0144 -2.595793,-0.0688 -3.885938,0.0401 -1.253862,0.14335 -2.520672,0.19501 -3.78695,0.22837 0,0 -1.319697,0.71955 -1.319697,0.71955 v 0 c 1.262313,-0.0424 2.528002,-0.0778 3.78018,-0.21208 1.31407,-0.13067 2.644638,-0.0661 3.966632,-0.10227 3.886191,-0.0276 7.77274,-0.0518 11.658776,0.006 6.437249,0.10725 12.880509,0.29649 19.271736,0.9165 1.073793,0.11006 2.148646,0.21459 3.221372,0.33029 4.066205,0.43859 8.156869,0.98397 12.283643,0.8315 1.719451,-0.20614 1.429746,-0.0706 3.35367,-1.0014 0.17612,-0.0853 0.291151,-0.23054 0.389411,-0.36874 0.359949,-0.50613 0.323453,-1.18453 0.518196,-1.72402 0.438608,-2.09864 0.914,-4.19529 1.854609,-6.20976 0.627436,-1.45838 1.284208,-2.90923 1.918108,-4.36601 0.292759,-0.67282 0.858142,-1.94866 1.078512,-2.67115 0.102924,-0.33787 0.15095,-0.68378 0.226421,-1.02566 -0.05296,-0.22392 -0.03929,-0.46256 -0.158949,-0.67175 -0.419667,-0.73352 -1.63981,-0.8267 -2.547897,-0.85319 -0.244274,-0.008 -3.593157,0.0665 -3.601531,0.0668 -5.589043,0.0702 -11.179485,0.0411 -16.769067,0.0328 -8.188713,-0.05 -16.382598,-0.15346 -24.551896,-0.60908 -1.453766,-0.0975 -2.909768,-0.17814 -4.361292,-0.29268 -3.657298,-0.28857 -7.286291,-0.7375 -10.863714,-1.37265 0,0 -1.379911,0.71851 -1.379911,0.71851 z" />
    <text
       xml:space="preserve"
       id="text73-5-9-0"
       style="font-size:6.5741px;line-height:1.25;font-family:sans-serif;letter-spacing:0px;white-space:pre;shape-inside:url(#rect75-7-2-0);stroke-width:1.55294;"
       transform="matrix(0.60475842,0,0,0.68566295,-2.3514858,167.46224)"><tspan
         x="70.480469"
         y="74.634897"><tspan
           style="font-size:6.5741px">StatisticHandTypeService</tspan></tspan></text>
    <path
       d="m 154.03332,206.81053 c -2.26162,0.019 -4.51814,-0.003 -6.77232,0.0774 -3.51174,0.14566 -6.51852,0.82863 -9.34883,1.59218 -1.81681,0.53129 -3.59737,1.08129 -5.22696,1.69196 -1.48156,0.55325 -2.41785,1.23095 -3.15323,1.95263 -0.51775,0.58714 -0.86414,1.19579 -1.12175,1.80624 -0.21706,0.66163 -0.17128,1.33224 -0.17368,1.99784 -0.19858,1.02056 0.6647,1.96554 1.64577,2.90056 2.0366,1.46259 5.36911,2.53158 8.7639,3.54064 2.24977,0.61772 4.62264,1.22036 7.25194,1.59435 2.08386,0.29642 4.42523,0.50607 6.5641,0.72018 7.04954,0.66375 14.19397,1.19675 21.43037,1.46958 2.78424,0.0738 5.56688,-0.0244 8.1781,-0.40853 2.3785,-0.34982 4.56871,-0.89843 6.74923,-1.3699 3.44675,-0.96401 6.62097,-2.09846 9.15944,-3.40304 0.47513,-0.24418 0.88963,-0.50405 1.33448,-0.75607 0.94361,-0.68587 2.04808,-1.4141 2.27287,-2.19952 0.2578,-0.90064 -0.45959,-1.77622 -1.0911,-2.63008 -1.45358,-1.58556 -3.86535,-3.00659 -6.41568,-4.37311 -2.08368,-1.17923 -4.48078,-1.92808 -7.59083,-2.70289 -2.09907,-0.47064 -4.31865,-0.88342 -6.68203,-1.13483 -1.63817,-0.17427 -2.28549,-0.19411 -3.98905,-0.29805 -4.71757,-0.21201 -9.48016,-0.21386 -14.22495,-0.24047 -2.20897,0.004 -4.42176,-0.042 -6.63,-0.009 -1.61465,0.0604 -3.21825,0.17212 -4.82381,0.26309 0,0 -2.66165,0.74385 -2.66165,0.74385 v 0 c 1.5568,-0.0806 3.11435,-0.16337 4.67199,-0.23438 2.25657,-0.0674 4.53247,-0.0167 6.79311,-0.0462 4.73655,0.003 9.49001,0.008 14.19809,0.22452 1.67225,0.10189 2.31429,0.12219 3.92323,0.29135 2.34217,0.24618 4.5592,0.63819 6.63771,1.10599 1.23221,0.3071 1.80625,0.43406 2.94997,0.78189 1.77539,0.53995 3.24461,1.19124 4.59162,1.87919 2.57666,1.34316 4.98032,2.74972 6.42704,4.32209 0.47084,0.65183 0.87164,1.07838 0.99615,1.75586 0.19894,1.08253 -0.89309,2.06081 -2.30441,2.98307 -0.44041,0.24745 -0.85089,0.50272 -1.32123,0.74239 -2.5524,1.3006 -5.74801,2.42991 -9.2454,3.36864 0.27125,-0.0541 1.09585,-0.20786 0.81377,-0.16217 -0.65938,0.10673 -1.28267,0.24352 -1.94717,0.34576 -2.60071,0.40017 -5.38759,0.52036 -8.18282,0.47234 -7.27723,-0.21882 -14.47479,-0.7048 -21.52181,-1.4204 -2.67856,-0.28465 -3.83992,-0.37714 -6.34469,-0.75198 -2.59146,-0.38784 -4.96298,-0.9572 -7.19974,-1.57326 -3.37762,-0.983 -6.68862,-2.03313 -8.6172,-3.49626 -0.96608,-0.95614 -1.67225,-1.84162 -1.50361,-2.87551 0.0182,-0.664 0.0109,-1.33118 0.24935,-1.99052 0.24797,-0.60116 0.59362,-1.1998 1.12252,-1.77569 0.74225,-0.70747 1.71065,-1.36305 3.18698,-1.8991 1.64195,-0.60006 3.40675,-1.15099 5.2352,-1.67032 0.3279,-0.0844 1.35029,-0.31148 0.98375,-0.25326 -0.67671,0.10738 -1.30435,0.25509 -1.92445,0.40264 -0.32197,0.0766 0.67632,-0.133 1.02724,-0.18918 0.71134,-0.11389 1.39897,-0.18977 2.15489,-0.25011 0.39688,-0.0317 0.79964,-0.0521 1.19946,-0.078 2.20561,-0.088 4.41704,-0.0849 6.63282,-0.0553 0,0 2.87331,-0.7791 2.87331,-0.7791 z"
       id="path105-3-0-6"
       style="fill:#000000;fill-opacity:0.501961;stroke:#000000;stroke-width:0.264583;opacity:0.35497835" />
    <text
       style="font-size:6.5741px;line-height:1.25;font-family:sans-serif;letter-spacing:0px;white-space:pre;shape-inside:url(#rect111-5-6-9);stroke-width:1.55294;"
       id="text109-5-6-2"
       xml:space="preserve"
       transform="matrix(0.60475842,0,0,0.68566295,50.146439,185.1615)"><tspan
         x="137.76172"
         y="46.457163"><tspan
           style="font-size:6.5741px">StatisticHandTypeServiceDTO</tspan></tspan></text>
    <path
       style="fill:#00ffff;fill-opacity:0.501961;stroke:#000000;stroke-width:0.264583;opacity:0.48484848"
       id="path200-2-6"
       d="m 99.796567,217.84641 c 1.627313,-0.054 3.255643,-0.0351 4.883443,-0.0369 2.08681,-0.0249 4.17365,-0.013 6.26045,0.004 1.28079,0.008 2.56137,0.018 3.84213,0.009 1.56429,-0.02 3.12863,-0.008 4.69294,5.3e-4 0.84989,0.003 1.69975,0.005 2.5496,0.0138 0,0 1.42983,-1.1778 1.42983,-1.1778 v 0 c -0.861,0.008 -1.722,0.0115 -2.58303,0.0138 -1.56475,0.008 -3.12959,0.0207 -4.69433,5.5e-4 -1.28791,-0.009 -2.57568,0.003 -3.86358,0.009 -2.08937,0.016 -4.17879,0.0283 -6.26815,0.004 -1.59792,-0.003 -3.19644,0.0181 -4.79383,-0.0369 0,0 -1.455473,1.19892 -1.455473,1.19892 z" />
    <path
       style="fill:#00ffff;fill-opacity:0.501961;stroke:#000000;stroke-width:0.264583;opacity:0.48484848"
       id="path202-6-1"
       d="m 117.03724,213.80349 c 1.41629,0.63374 2.79862,1.36378 4.14874,2.16098 0.4594,0.33442 1.46342,1.08469 1.47315,1.80638 10e-4,0.12104 -0.0494,0.23552 -0.074,0.35329 0.22037,0.0674 -0.96124,0.8539 -0.71206,0.65368 0.27747,-0.22297 0.6815,-0.30069 0.85389,-0.63304 0.12645,-0.24372 -0.45951,0.22017 -0.69232,0.32156 -0.21831,0.0951 -0.44045,0.17842 -0.66069,0.26763 0,0 -1.35487,1.19786 -1.35487,1.19786 v 0 c 1.42002,-0.56317 1.97015,-0.88298 3.47473,-1.87513 0.16649,-0.10981 0.32844,-0.23651 0.46108,-0.39487 0.0998,-0.119 0.14884,-0.2814 0.22326,-0.4221 0.0127,-0.14394 0.0504,-0.28802 0.037,-0.43182 -0.079,-0.84096 -1.04111,-1.50806 -1.59197,-1.91362 -1.35071,-0.76552 -2.73183,-1.45978 -4.09024,-2.20759 0,0 -1.49561,1.11679 -1.49561,1.11679 z" />
    <path
       style="fill:#00ffff;fill-opacity:0.501961;stroke:#000000;stroke-width:0.264583;opacity:0.48484848"
       id="path192-9-8"
       d="m 134.67525,164.24138 c -0.85445,2.15396 -2.00008,4.17308 -3.15869,6.17383 -2.18232,3.41609 -4.46524,6.76637 -6.73503,10.12455 -1.63897,2.40058 -3.13072,4.8937 -4.67014,7.35775 -1.36195,2.5323 -3.4068,4.25053 -5.66926,5.93593 -2.46674,1.61087 -4.86626,3.32405 -7.34883,4.91025 0.29664,-0.17821 1.23339,-0.57705 0.88994,-0.53462 -0.41252,0.051 -0.73794,0.3831 -1.11304,0.56218 -0.35458,0.16929 -0.71254,0.33198 -1.07542,0.48266 -0.93382,0.38774 -1.89424,0.65574 -2.86613,0.9259 -1.01343,0.2467 -2.02833,0.48638 -3.047256,0.70926 0,0 -2.035576,1.54846 -2.035576,1.54846 v 0 c 1.03059,-0.23528 2.058046,-0.48292 3.087302,-0.7238 0.40894,-0.11297 1.49488,-0.40783 1.88246,-0.53657 2.33804,-0.77656 4.45757,-2.07925 6.56429,-3.32376 2.47337,-1.59997 4.8843,-3.29584 7.33828,-4.92519 2.26563,-1.71313 4.27799,-3.47936 5.64609,-6.02446 1.52827,-2.45086 3.00117,-4.93573 4.62225,-7.32781 2.24908,-3.36845 4.50387,-6.73338 6.71116,-10.12945 1.22447,-2.04207 2.40709,-4.1168 3.33699,-6.31317 0,0 -2.35939,1.10806 -2.35939,1.10806 z" />
    <path
       style="fill:#00ffff;fill-opacity:0.501961;stroke:#000000;stroke-width:0.264583;opacity:0.48484848"
       id="path194-1-7"
       d="m 95.677498,195.86434 c -0.76166,1.12483 -1.40955,2.33484 -2.08492,3.51657 -0.64127,1.1086 -1.21352,2.26117 -1.62993,3.47358 -0.0246,0.18043 -0.12519,0.65944 -0.0133,0.84566 0.57012,0.94891 2.9466,0.95325 3.84856,1.03707 3.079629,0.18986 6.132422,0.64163 9.188552,1.04669 0.31228,0.0389 0.62456,0.0777 0.93684,0.11656 0,0 2.0513,-1.45527 2.0513,-1.45527 v 0 c -0.31954,-0.0328 -0.63907,-0.0655 -0.95861,-0.0982 -3.07394,-0.34891 -6.13768,-0.79113 -9.223362,-1.02958 -0.57489,-0.0588 -3.16331,-0.17189 -3.54322,-0.81381 -0.0897,-0.15147 0.0262,-0.60927 0.0509,-0.74357 0.416659,-1.1912 0.97636,-2.32426 1.611779,-3.41386 0.675181,-1.19781 1.334141,-2.41986 2.166751,-3.51663 0,0 -2.401361,1.03483 -2.401361,1.03483 z" />
    <rect
       style="fill:#f9f9f9;fill-opacity:0;stroke:#000000;stroke-width:0.265;stroke-linejoin:round;stroke-miterlimit:4;stroke-dasharray:0.53, 0.265;stroke-dashoffset:0"
       id="rect174"
       width="171.85429"
       height="32.339615"
       x="27.528761"
       y="17.115995"
       rx="6.320446"
       ry="7.3895297" />
    <text
       xml:space="preserve"
       id="text999"
       style="font-size:10.5833px;line-height:1.25;font-family:sans-serif;letter-spacing:0px;white-space:pre;shape-inside:url(#rect1001);fill:#808080;"
       transform="translate(278.86169,19.410714)"><tspan
         x="-115.19336"
         y="-3.9995415"><tspan
           style="font-size:5.64444px;fill:#808080">File Parser</tspan></tspan></text>
    <rect
       ry="7.3895302"
       rx="6.320446"
       y="79.18042"
       x="28.196959"
       height="32.339615"
       width="171.85431"
       id="rect174-6"
       style="display:inline;fill:#f9f9f9;fill-opacity:0;stroke:#000000;stroke-width:0.264999;stroke-linejoin:round;stroke-miterlimit:4;stroke-dasharray:0.53, 0.264999;stroke-dashoffset:0" />
    <text
       transform="translate(272.72959,80.673325)"
       style="font-size:10.5833px;line-height:1.25;font-family:sans-serif;letter-spacing:0px;white-space:pre;shape-inside:url(#rect1001-3);display:inline;fill:#808080;"
       id="text999-7"
       xml:space="preserve"><tspan
         x="-115.19336"
         y="-3.9995415"><tspan
           style="font-size:5.64444px;fill:#808080">Hand Mapper</tspan></tspan></text>
    <rect
       style="display:inline;fill:#f9f9f9;fill-opacity:0;stroke:#000000;stroke-width:0.264999;stroke-linejoin:round;stroke-miterlimit:4;stroke-dasharray:0.53, 0.264999;stroke-dashoffset:0"
       id="rect174-6-3"
       width="171.85431"
       height="32.339615"
       x="28.196955"
       y="141.45422"
       rx="6.320446"
       ry="7.3895307" />
    <text
       xml:space="preserve"
       id="text999-7-5"
       style="font-size:10.5833px;line-height:1.25;font-family:sans-serif;letter-spacing:0px;white-space:pre;shape-inside:url(#rect1001-3-5);display:inline;fill:#808080;"
       transform="translate(266.80379,143.01197)"><tspan
         x="-115.19336"
         y="-3.9995415"><tspan
           style="font-size:5.64444px;fill:#808080">Hand Evaluator</tspan></tspan></text>
    <rect
       style="display:inline;fill:#f9f9f9;fill-opacity:0;stroke:#000000;stroke-width:0.264999;stroke-linejoin:round;stroke-miterlimit:4;stroke-dasharray:0.53, 0.264999;stroke-dashoffset:0"
       id="rect174-6-9"
       width="171.85431"
       height="32.339615"
       x="29.533306"
       y="200.78806"
       rx="6.320446"
       ry="7.3895307" />
    <text
       xml:space="preserve"
       id="text999-7-1"
       style="font-size:10.5833px;line-height:1.25;font-family:sans-serif;letter-spacing:0px;white-space:pre;shape-inside:url(#rect1001-3-6);display:inline;fill:#808080;"
       transform="translate(258.85057,202.65893)"><tspan
         x="-115.19336"
         y="-3.9995415"><tspan
           style="font-size:5.64444px;fill:#808080">Statistic Hand Type</tspan></tspan></text>
    <rect
       style="display:inline;fill:#f9f9f9;fill-opacity:0;stroke:#000000;stroke-width:0.264999;stroke-linejoin:round;stroke-miterlimit:4;stroke-dasharray:0.53, 0.264999;stroke-dashoffset:0"
       id="rect174-6-0"
       width="171.85431"
       height="32.339615"
       x="30.067841"
       y="258.25101"
       rx="6.320446"
       ry="7.3895307" />
    <text
       xml:space="preserve"
       id="text999-7-9"
       style="font-size:10.5833px;line-height:1.25;font-family:sans-serif;letter-spacing:0px;white-space:pre;shape-inside:url(#rect1001-3-2);display:inline;fill:#808080;"
       transform="translate(235.40817,259.47664)"><tspan
         x="-115.19336"
         y="-3.9995415"><tspan
           style="font-size:5.64444px;fill:#808080">Statistic Hand Type Viewer</tspan></tspan></text>
    <path
       d="m 133.16335,223.58364 c -0.85445,2.15396 -2.00008,4.17308 -3.15869,6.17383 -2.18232,3.41609 -4.46524,6.76637 -6.73503,10.12455 -1.63897,2.40058 -3.13072,4.8937 -4.67014,7.35775 -1.36195,2.5323 -3.4068,4.25053 -5.66926,5.93593 -2.46674,1.61087 -4.86626,3.32405 -7.34883,4.91025 0.29664,-0.17821 1.23339,-0.57705 0.88994,-0.53462 -0.41252,0.051 -0.73794,0.3831 -1.11304,0.56218 -0.35458,0.16929 -0.71254,0.33198 -1.07542,0.48266 -0.93383,0.38774 -1.89425,0.65574 -2.86614,0.9259 -1.01343,0.2467 -2.028326,0.48638 -3.047252,0.70926 0,0 -2.035576,1.54846 -2.035576,1.54846 v 0 c 1.03059,-0.23528 2.058046,-0.48292 3.087302,-0.7238 0.40894,-0.11297 1.494876,-0.40783 1.882456,-0.53657 2.33804,-0.77656 4.45758,-2.07925 6.5643,-3.32376 2.47337,-1.59997 4.8843,-3.29584 7.33828,-4.92519 2.26563,-1.71313 4.27799,-3.47936 5.64609,-6.02446 1.52827,-2.45086 3.00117,-4.93573 4.62225,-7.32781 2.24908,-3.36845 4.50387,-6.73338 6.71116,-10.12945 1.22447,-2.04207 2.40709,-4.1168 3.33699,-6.31317 0,0 -2.35939,1.10806 -2.35939,1.10806 z"
       id="path192-9-8-3"
       style="display:inline;fill:#00ffff;fill-opacity:0.501961;stroke:#000000;stroke-width:0.264583;opacity:0.48484848" />
    <path
       d="m 94.165592,255.2066 c -0.76166,1.12483 -1.40955,2.33484 -2.08492,3.51657 -0.64127,1.1086 -1.21352,2.26117 -1.62993,3.47358 -0.0246,0.18043 -0.12519,0.65944 -0.0133,0.84566 0.57012,0.94891 2.9466,0.95325 3.84856,1.03707 3.079629,0.18986 6.132418,0.64163 9.188548,1.04669 0.31228,0.0389 0.62456,0.0777 0.93685,0.11656 0,0 2.0513,-1.45527 2.0513,-1.45527 v 0 c -0.31954,-0.0328 -0.63907,-0.0655 -0.95861,-0.0982 -3.07395,-0.34891 -6.137686,-0.79113 -9.223368,-1.02958 -0.57489,-0.0588 -3.16331,-0.17189 -3.54322,-0.81381 -0.0897,-0.15147 0.0262,-0.60927 0.0509,-0.74357 0.416659,-1.1912 0.97636,-2.32426 1.611779,-3.41386 0.675181,-1.19781 1.334141,-2.41986 2.166751,-3.51663 0,0 -2.401361,1.03483 -2.401361,1.03483 z"
       id="path194-1-7-6"
       style="display:inline;fill:#00ffff;fill-opacity:0.501961;stroke:#000000;stroke-width:0.264583;opacity:0.48484848" />
  </g>
</svg>
